<?xml version="1.0" encoding="utf-8"?>
<!-- Generator: Adobe Illustrator 16.0.0, SVG Export Plug-In . SVG Version: 6.00 Build 0)  -->
<!DOCTYPE svg PUBLIC "-//W3C//DTD SVG 1.1//EN" "http://www.w3.org/Graphics/SVG/1.1/DTD/svg11.dtd">
<svg version="1.1" id="Layer_1" xmlns="http://www.w3.org/2000/svg" xmlns:xlink="http://www.w3.org/1999/xlink" x="0px" y="0px"
	 width="327px" height="351px" viewBox="0 0 327 351" enable-background="new 0 0 327 351" xml:space="preserve">
<filter  height="5.636147" width="1.249503" id="filter7191" y="-2.318073" x="-0.124752">
	<feGaussianBlur  stdDeviation="13.643294" id="feGaussianBlur7193"></feGaussianBlur>
</filter>
<g>
	<title>Layer 1</title>
	<path id="path11675" fill="none" stroke="#000000" stroke-width="13" stroke-linecap="round" d="M176.719,152.543
		c-1.469-0.039-2.85,0.703-3.627,1.949c-0.775,1.246-0.836,2.813-0.154,4.113c0,0,46.709,93.368,63,132.249v0.031
		c0,0,6.484,16.045,0.844,28.063c-2.623,5.59-10.57,12.357-19.375,14.656c-8.805,2.301-18.008,0.947-25.656-8.875
		c-0.891-1.221-2.377-1.859-3.877-1.666c-1.498,0.193-2.773,1.188-3.326,2.596c-0.553,1.406-0.295,3.004,0.672,4.164
		c9.533,12.242,23.041,14.719,34.281,11.781c11.242-2.936,20.713-10.49,24.781-19.156c7.74-16.486-0.75-34.844-0.75-34.844
		c-16.643-39.715-63.188-132.718-63.188-132.718C179.67,153.488,178.27,152.583,176.719,152.543L176.719,152.543z"/>
	<path id="path11677" fill="none" stroke="#000000" stroke-width="13" stroke-linecap="round" d="M101.477,24.372"/>
	<path id="path11679" fill="none" stroke="#000000" stroke-width="13" stroke-linecap="round" d="M27.974,236.593
		c-38.141-79.169-4.842-174.378,74.328-212.52c79.17-38.141,174.379-4.842,212.52,74.328l0,0
		c-28.566,1.846-38.535,5.741-57.914,26.637c-29.424,0.073-59.063,20.567-79.385,39.506c-28.784,1.399-63.829,18.507-83.432,38.941
		C64.986,204.218,46.579,214.089,27.974,236.593z"/>
	<path id="path11681" fill="none" stroke="#000000" stroke-width="13" d="M93.885,203.026
		c-33.761-67.306-37.05-108.834,9.144-178.674"/>
	<path id="path11683" fill="none" stroke="#000000" stroke-width="13" d="M254.756,123.327
		c-31.807-51.326-54.58-93.094-152.055-101.74"/>
	<path id="path11685" fill="none" stroke="#000000" stroke-width="13" d="M177.852,164c-33.701-60.826-47.464-74.88-73.485-142.284"
		/>
	<g id="path7152" filter="url(#filter7191)">
		<path fill="none" stroke="#000000" stroke-width="13" stroke-linecap="round" stroke-linejoin="round" d="M226.906,336.253
			c-5.932,2.969-16.262,0.875-16.93,0.713c-6.725-1.637,6.488,0.783,14.92-1.113c6.471-1.457,14.846-15.924,15.5-15.715
			C241.049,320.347,232.838,333.282,226.906,336.253z"/>
	</g>
</g>
</svg>
