<?xml version="1.0" encoding="utf-8"?>
<!-- Generator: Adobe Illustrator 17.0.0, SVG Export Plug-In . SVG Version: 6.00 Build 0)  -->
<!DOCTYPE svg PUBLIC "-//W3C//DTD SVG 1.1//EN" "http://www.w3.org/Graphics/SVG/1.1/DTD/svg11.dtd">
<svg version="1.1" id="Layer_1" xmlns="http://www.w3.org/2000/svg" xmlns:xlink="http://www.w3.org/1999/xlink" x="0px" y="0px"
	 width="120.335px" height="184.118px" viewBox="39.832 7.156 120.335 184.118"
	 enable-background="new 39.832 7.156 120.335 184.118" xml:space="preserve">
<g>
	<circle fill="#010101" cx="71.565" cy="19.847" r="13.348"/>
	<circle fill="#010101" cx="112.443" cy="28.822" r="12.77"/>
	<path fill="#010101" d="M76.971,35.617l-4.266,1.261c-0.042,0-0.086,0.006-0.129,0.012c-0.236-0.3-0.548-0.49-0.894-0.49
		c-0.371,0-0.704,0.209-0.944,0.551c-0.098-0.046-0.204-0.073-0.319-0.073l-4.264-1.261c-0.415,0-0.751,0.334-0.751,0.75v3.752
		c0,0.416,0.336,0.753,0.751,0.753l4.264-1.195c0.123,0,0.236-0.031,0.338-0.083c0.238,0.327,0.565,0.528,0.925,0.528
		c0.333,0,0.632-0.177,0.867-0.461c0.052,0.01,0.104,0.016,0.158,0.016l4.266,1.195c0.417,0,0.751-0.338,0.751-0.753v-3.752
		C77.724,35.951,77.386,35.617,76.971,35.617z"/>
	<circle fill="#010101" cx="71.565" cy="46.261" r="1.981"/>
	<circle fill="#010101" cx="71.565" cy="53.955" r="1.98"/>
	<circle fill="#010101" cx="71.565" cy="61.649" r="1.981"/>
	<circle fill="#010101" cx="71.565" cy="69.345" r="1.98"/>
	<path fill="#010101" d="M112.443,7.156c-12.579,0-19.791,7.897-19.791,21.664h4.094c0-8.014,2.722-17.569,15.697-17.569
		s15.698,9.554,15.698,17.569h4.093C132.232,15.053,125.021,7.156,112.443,7.156z"/>
	<path fill="#010101" d="M159.909,184.309l-24.417-68.998V45.597h-34.599c0,0-1.211-7.354-12.812-7.354h-7.439v30.268
		c0,0-0.069,6.962-9.077,6.962c-9.007,0-9.077-7.032-9.077-7.032l-0.135-30.199H49.797c0,0-9.965,0.719-9.965,9.181
		s0,63.335,0,63.335s0,4.298,5.836,4.298s6.447-3.218,6.447-3.218v81.173h22.727c0,0,2.918,0.055,2.918-1.737
		c1.586,1.534,6.63,3.71,10.34,0c1.893,1.276,5.323,3.99,9.98,0c0,0,5.424,4.552,9.982,0c2.506,1.534,4.605,3.633,10.08,0.304
		c2.561,1.334,6.195,3.379,9.982-0.15c3.275,1.738,5.017,3.634,9.982,0c4.042,2.05,6.601,3.376,10.491-0.564
		C151.769,194.903,161.904,194.8,159.909,184.309z M54.229,59.534c-2.451,0-4.435-1.986-4.435-4.437
		c0-2.449,1.985-4.435,4.435-4.435c2.451,0,4.437,1.985,4.437,4.435C58.665,57.548,56.679,59.534,54.229,59.534z M153.527,190.332
		c-1.872,0-3.395-1.457-3.395-3.244c0-0.961,0.441-1.822,1.132-2.418h0.01c0-0.977-1.292-1.765-2.884-1.765
		c-1.595,0-2.885,0.792-2.885,1.765h0.021c0.695,0.592,1.132,1.453,1.132,2.418c0,1.791-1.517,3.244-3.393,3.244
		c-1.871,0-3.392-1.457-3.392-3.244c0-0.965,0.442-1.826,1.137-2.422h-0.014c-0.002-0.973-1.205-1.761-2.688-1.761
		s-2.688,0.788-2.688,1.765h0.008c0.694,0.592,1.131,1.453,1.131,2.414c0,1.791-1.519,3.245-3.394,3.245
		c-1.874,0-3.393-1.454-3.393-3.245c0-0.961,0.442-1.826,1.139-2.418h-0.057c-0.005-0.977-1.276-1.765-2.847-1.765
		s-2.845,0.788-2.847,1.765h-0.012c0.698,0.592,1.139,1.453,1.139,2.418c0,1.791-1.521,3.245-3.394,3.245
		c-1.874,0-3.395-1.454-3.395-3.245c0-0.961,0.442-1.822,1.133-2.414h0.024c0-0.977-1.234-1.765-2.757-1.765
		c-1.521,0-2.754,0.788-2.754,1.765h0.036c0.694,0.592,1.131,1.453,1.131,2.414c0,1.791-1.519,3.245-3.392,3.245
		c-1.874,0-3.393-1.454-3.393-3.245c0-0.961,0.44-1.826,1.136-2.418h-0.011c-0.004-0.977-1.3-1.765-2.892-1.765
		c-1.596,0-2.885,0.788-2.889,1.765h-0.041c0.696,0.592,1.135,1.453,1.135,2.418c0,1.791-1.517,3.245-3.392,3.245
		c-1.873,0-3.392-1.454-3.392-3.245c0-0.961,0.44-1.826,1.138-2.418h-0.035c-0.002-0.977-1.126-1.765-2.506-1.765
		c-1.384,0-2.503,0.788-2.507,1.765h-0.039c0.696,0.592,1.136,1.453,1.136,2.418c0,1.791-1.517,3.245-3.391,3.245
		s-3.393-1.454-3.393-3.245c0-0.961,0.44-1.822,1.134-2.414h0.065c0-0.977-1.357-1.765-3.034-1.765
		c-1.674,0-3.033,0.788-3.033,1.765h0.016c0.694,0.592,1.132,1.453,1.132,2.414c0,1.791-1.517,3.245-3.391,3.245
		s-3.393-1.454-3.393-3.245c0-0.961,0.442-1.826,1.138-2.418h-0.039c-0.004-0.977-1.213-1.765-2.703-1.765
		c-1.492,0-2.703,0.792-2.703,1.765H75c0.694,0.592,1.132,1.453,1.132,2.418c0,1.791-1.519,3.245-3.395,3.245
		c-1.871,0-3.391-1.457-3.391-3.245c0-0.965,4.225-15.897,4.225-15.897l-0.034-51.632c0,0-0.204-2.18,1.913-2.18
		c2.116,0,2.08,1.876,2.08,1.876l0.41,37.161l19.451-64.427h9.279c9.216-0.173,5.462-11.98,5.462-11.98l-9.721-29.648
		c-0.546-1.399,0.272-1.434,0.272-1.434h28.562c1.194,0,1.159,0.75,1.159,0.75l-0.069,56.646l-10.818-28.393l4.643-11.907
		c0,0,0.955-1.399-0.719-2.049c-1.671-0.65-2.286,0.581-2.286,0.581l-4.74,13.544l38.113,106.571c0,0,0.39,1.453,0.39,2.418
		C156.918,188.875,155.399,190.332,153.527,190.332z"/>
</g>
</svg>
