<?xml version="1.0" encoding="utf-8"?>
<!-- Generator: Adobe Illustrator 16.0.0, SVG Export Plug-In . SVG Version: 6.00 Build 0)  -->
<!DOCTYPE svg PUBLIC "-//W3C//DTD SVG 1.1//EN" "http://www.w3.org/Graphics/SVG/1.1/DTD/svg11.dtd">
<svg version="1.1"
	 id="svg3923" xmlns:dc="http://purl.org/dc/elements/1.1/" xmlns:cc="http://creativecommons.org/ns#" xmlns:rdf="http://www.w3.org/1999/02/22-rdf-syntax-ns#" xmlns:svg="http://www.w3.org/2000/svg" xmlns:sodipodi="http://sodipodi.sourceforge.net/DTD/sodipodi-0.dtd" xmlns:inkscape="http://www.inkscape.org/namespaces/inkscape" sodipodi:docname="auto.svg" inkscape:version="0.48.0 r9654"
	 xmlns="http://www.w3.org/2000/svg" xmlns:xlink="http://www.w3.org/1999/xlink" x="0px" y="0px" width="345px" height="191px"
	 viewBox="-8.655 -10.72 345 191" enable-background="new -8.655 -10.72 345 191" xml:space="preserve">
<title  id="title4540">auto</title>
<sodipodi:namedview  fit-margin-left="0" fit-margin-top="0" showgrid="false" inkscape:cy="54.964765" inkscape:cx="137.40392" inkscape:zoom="0.80664062" borderopacity="1.0" bordercolor="#666666" pagecolor="#ffffff" id="base" fit-margin-bottom="0" fit-margin-right="0" inkscape:window-maximized="0" inkscape:window-y="123" inkscape:window-x="308" inkscape:window-width="1156" inkscape:window-height="788" inkscape:pageshadow="2" inkscape:current-layer="layer1" inkscape:pageopacity="0.0" inkscape:document-units="px">
	</sodipodi:namedview>
<g id="layer1" transform="translate(-119.94061,-468.17238)" inkscape:label="Calque 1" inkscape:groupmode="layer">
	
		<path id="path4455_1_" sodipodi:nodetypes="ccccc" inkscape:connector-curvature="0" fill="#FFFFFF" stroke="#000000" stroke-width="13" stroke-linecap="round" stroke-linejoin="round" d="
		M446.632,615.374h-8.328l-1.753-20.162"/>
	
		<path id="path4453_1_" sodipodi:nodetypes="ccccc" inkscape:connector-curvature="0" fill="#FFFFFF" stroke="#000000" stroke-width="13" stroke-linecap="round" stroke-linejoin="round" d="
		M120.94,615.812l12.711,0.438l0.877-21.477"/>
	
		<path id="path3931" sodipodi:nodetypes="ccccccccc" inkscape:connector-curvature="0" fill="#FFFFFF" stroke="#000000" stroke-width="13" stroke-linecap="round" stroke-linejoin="round" d="
		M144.243,550.412c7.81-10.791,46.023-13.804,68.674-20.059c6.191-18.174,14.285-35.471,22.08-53.645
		c15.026-6.716,74.406-12.186,118.968-1.558c13.492,17.271,22.988,33.093,30.949,54.513c13.168,1.707,25.832,5.857,34.016,9.696
		c14.993,17.344,17.636,48.596,20.222,76.79l-310.234,0.355C130.933,594.82,127.623,571.22,144.243,550.412L144.243,550.412z"/>
	
		<path id="path4467_3_" sodipodi:nodetypes="cccccccc" inkscape:connector-curvature="0" fill="#FFFFFF" stroke="#000000" stroke-width="9" stroke-linecap="round" stroke-linejoin="round" d="
		M356.779,606.169"/>
	
		<path id="path4467_8_" sodipodi:nodetypes="cccccccc" inkscape:connector-curvature="0" fill="#FFFFFF" stroke="#000000" stroke-width="9" stroke-linecap="round" stroke-linejoin="round" d="
		M356.779,606.169"/>
	
		<path id="path4467_4_" sodipodi:nodetypes="cccccccc" inkscape:connector-curvature="0" fill="#FFFFFF" stroke="#000000" stroke-width="9" stroke-linecap="round" stroke-linejoin="round" d="
		M341.286,606.166"/>
	
		<path id="path4467_7_" sodipodi:nodetypes="cccccccc" inkscape:connector-curvature="0" fill="#FFFFFF" stroke="#000000" stroke-width="9" stroke-linecap="round" stroke-linejoin="round" d="
		M341.286,606.166"/>
	
		<path id="path4467_6_" sodipodi:nodetypes="cccccccc" inkscape:connector-curvature="0" fill="#FFFFFF" stroke="#000000" stroke-width="9" stroke-linecap="round" stroke-linejoin="round" d="
		M321.286,606.162"/>
	
		<path id="path4467_2_" sodipodi:nodetypes="cccccccc" inkscape:connector-curvature="0" fill="#FFFFFF" stroke="#000000" stroke-width="9" stroke-linecap="round" stroke-linejoin="round" d="
		M309.286,606.159"/>
	
		<path id="path4467_9_" sodipodi:nodetypes="cccccccc" inkscape:connector-curvature="0" fill="#FFFFFF" stroke="#000000" stroke-width="9" stroke-linecap="round" stroke-linejoin="round" d="
		M304.286,606.157"/>
	
		<path id="path4467_5_" sodipodi:nodetypes="cccccccc" inkscape:connector-curvature="0" fill="#FFFFFF" stroke="#000000" stroke-width="9" stroke-linecap="round" stroke-linejoin="round" d="
		M300.018,468.172c-1.403,0.005,1.443,8.007,0,8.04l0.22,59.39v70.554l-0.62,10.349"/>
	
		<path id="path4441" inkscape:connector-curvature="0" fill="#FFFFFF" stroke="#000000" stroke-width="13" stroke-linecap="round" stroke-linejoin="round" d="
		M205.953,606.308c1.213,20.416-22.046,38.549-41.77,30.386c-19.747-6.887-27.486-33.771-14.457-49.905
		c9.386-13.138,29.779-17.145,42.791-6.861C200.867,585.974,206.275,596.027,205.953,606.308z"/>
	
		<path id="path4443" inkscape:connector-curvature="0" fill="#FFFFFF" stroke="#000000" stroke-width="13" stroke-linecap="round" stroke-linejoin="round" d="
		M429.343,605.989c0.596,18.291-16.828,34.855-35.164,32.522c-16.407-1.316-29.94-16.639-29.157-33.093
		c-0.165-16.775,14.435-32.031,31.312-32.052C414.199,572.491,429.706,588.29,429.343,605.989L429.343,605.989z"/>
	
		<path id="path4484_1_" inkscape:connector-curvature="0" fill="#FFFFFF" stroke="#000000" stroke-width="13" stroke-linecap="round" stroke-linejoin="round" d="
		M286.683,541.602"/>
</g>
<line fill="none" stroke="#000000" stroke-width="13" stroke-linecap="round" stroke-linejoin="round" x1="264.973" y1="61.491" x2="92.976" y2="62.181"/>
</svg>
