<?xml version="1.0" encoding="utf-8"?>
<!-- Generator: Adobe Illustrator 16.0.0, SVG Export Plug-In . SVG Version: 6.00 Build 0)  -->
<!DOCTYPE svg PUBLIC "-//W3C//DTD SVG 1.1//EN" "http://www.w3.org/Graphics/SVG/1.1/DTD/svg11.dtd">
<svg version="1.1"
	 id="svg2" xmlns:dc="http://purl.org/dc/elements/1.1/" xmlns:cc="http://creativecommons.org/ns#" xmlns:inkscape="http://www.inkscape.org/namespaces/inkscape" xmlns:rdf="http://www.w3.org/1999/02/22-rdf-syntax-ns#" xmlns:svg="http://www.w3.org/2000/svg" xmlns:sodipodi="http://sodipodi.sourceforge.net/DTD/sodipodi-0.dtd" inkscape:version="0.47pre4 " sodipodi:docname="decorations1.svg"
	 xmlns="http://www.w3.org/2000/svg" xmlns:xlink="http://www.w3.org/1999/xlink" x="0px" y="0px" width="151.619px"
	 height="151.691px" viewBox="17.131 170.406 151.619 151.691" enable-background="new 17.131 170.406 151.619 151.691"
	 xml:space="preserve">
<defs>
	
	
		<inkscape:perspective  id="perspective10" inkscape:vp_z="744.09448 : 526.18109 : 1" sodipodi:type="inkscape:persp3d" inkscape:vp_x="0 : 526.18109 : 1" inkscape:vp_y="0 : 1000 : 0" inkscape:persp3d-origin="372.04724 : 350.78739 : 1">
		</inkscape:perspective>
	
		<inkscape:perspective  id="perspective10-7" inkscape:vp_z="1 : 0.5 : 1" sodipodi:type="inkscape:persp3d" inkscape:vp_x="0 : 0.5 : 1" inkscape:vp_y="0 : 1000 : 0" inkscape:persp3d-origin="0.5 : 0.33333333 : 1">
		</inkscape:perspective>
	
		<inkscape:perspective  id="perspective2832" inkscape:vp_z="1 : 0.5 : 1" sodipodi:type="inkscape:persp3d" inkscape:vp_x="0 : 0.5 : 1" inkscape:vp_y="0 : 1000 : 0" inkscape:persp3d-origin="0.5 : 0.33333333 : 1">
		</inkscape:perspective>
	
		<inkscape:perspective  id="perspective2845" inkscape:vp_z="125 : 62.5 : 1" sodipodi:type="inkscape:persp3d" inkscape:vp_x="0 : 62.5 : 1" inkscape:vp_y="0 : 1000 : 0" inkscape:persp3d-origin="62.5 : 41.666667 : 1">
		</inkscape:perspective>
	
		<inkscape:perspective  id="perspective2861" inkscape:vp_z="1 : 0.5 : 1" sodipodi:type="inkscape:persp3d" inkscape:vp_x="0 : 0.5 : 1" inkscape:vp_y="0 : 1000 : 0" inkscape:persp3d-origin="0.5 : 0.33333333 : 1">
		</inkscape:perspective>
	
		<inkscape:perspective  id="perspective3077" inkscape:vp_z="744.09448 : 526.18109 : 1" sodipodi:type="inkscape:persp3d" inkscape:vp_x="0 : 526.18109 : 1" inkscape:vp_y="0 : 1000 : 0" inkscape:persp3d-origin="372.04724 : 350.78739 : 1">
		</inkscape:perspective>
	
		<inkscape:perspective  id="perspective10-4" inkscape:vp_z="744.09448 : 526.18109 : 1" sodipodi:type="inkscape:persp3d" inkscape:vp_x="0 : 526.18109 : 1" inkscape:vp_y="0 : 1000 : 0" inkscape:persp3d-origin="372.04724 : 350.78739 : 1">
		</inkscape:perspective>
	
		<inkscape:perspective  id="perspective2887" inkscape:vp_z="1 : 0.5 : 1" sodipodi:type="inkscape:persp3d" inkscape:vp_x="0 : 0.5 : 1" inkscape:vp_y="0 : 1000 : 0" inkscape:persp3d-origin="0.5 : 0.33333333 : 1">
		</inkscape:perspective>
	
		<inkscape:perspective  id="perspective2901" inkscape:vp_z="1 : 0.5 : 1" sodipodi:type="inkscape:persp3d" inkscape:vp_x="0 : 0.5 : 1" inkscape:vp_y="0 : 1000 : 0" inkscape:persp3d-origin="0.5 : 0.33333333 : 1">
		</inkscape:perspective>
</defs>
<sodipodi:namedview  id="base" inkscape:window-height="708" inkscape:window-x="-4" inkscape:window-y="-4" inkscape:window-maximized="1" pagecolor="#ffffff" bordercolor="#666666" inkscape:cx="353.51742" inkscape:cy="284.83379" inkscape:zoom="0.95263641" showgrid="false" borderopacity="1.0" inkscape:window-width="1280" inkscape:current-layer="layer1" inkscape:document-units="px" inkscape:pageshadow="2" inkscape:pageopacity="0.0">
	</sodipodi:namedview>
<g id="layer1" transform="translate(-41.345589,-36.456759)" inkscape:label="Layer 1" inkscape:groupmode="layer">
	
		<path id="path2818" sodipodi:nodetypes="cssssscccsssccsssssscccssscccssssssssssssssssssssssssssssscccssssssssssssssssssssssssssssssssssssssssssccsssccssssssssssscccssssssssssscccsccssssscccsssssssssccssssssccssssccsssssssssccsssssc" d="
		M137.293,351.276c1.602-0.646,33.389-30.596,46.188-43.517c13.69-13.82,21.861-27.599,25.199-42.49
		c5.006-22.337-3.554-43.345-21.188-52.004c-4.896-2.404-8.74-3.41-15.19-3.104c-8.053,0.381-4.196-0.054-16.138,4.507
		c-5.915,2.259-10.682,6.299-15.14,10.543l-6.661,6.341l-6.556-6.18c-19.225-18.122-41.319-20.059-56.599-4.96
		c-14.34,14.17-16.737,36.676-6.326,59.395c6.576,14.35,11.957,20.529,46.53,53.436
		C129.855,350.795,133.021,353.002,137.293,351.276L137.293,351.276z M132.345,339.216c-2.536-9.132-0.294-18.649,4.688-19.899
		c5.491-1.379,12.314,3.297,12.192,8.354c-0.065,2.694-0.106,2.716-1.129,0.599c-1.524-3.154-5.763-4.404-9.064-2.674
		c-3.212,1.683-4.595,7.266-2.907,11.735c0.82,2.173,0.826,3.343,0.024,4.309C134.369,343.785,133.452,343.2,132.345,339.216
		L132.345,339.216z M140.931,334.466c-0.316-0.825-0.309-2.194,0.017-3.043c0.524-1.366,0.807-1.35,2.465,0.151
		c1.425,1.29,1.605,2.018,0.754,3.043C142.709,336.375,141.645,336.325,140.931,334.466L140.931,334.466L140.931,334.466z
		 M122.156,327.988c0.633-8.773-6.349-15.177-14.118-12.948c-2.929,0.84-3.53,0.6-6.73-2.688c-2.712-2.786-3.172-3.734-2.015-4.152
		c0.825-0.298,3.148-2.18,5.163-4.182c5.337-5.306,7.149-12.406,6.678-26.173c-0.205-5.983-0.098-10.878,0.238-10.878
		s1.417,0.891,2.402,1.979c2.156,2.383,11.483,6.021,15.435,6.021c5.837,0,12.04-4.016,14.959-9.685
		c2.61-5.068,0.613-12.674-4.731-18.019c-1.729-1.729-3.144-3.647-3.144-4.263c0-2.192,16.525-17.601,21.405-19.959
		c4.778-2.31,4.939-2.321,6.205-0.474c6.914,10.103,19.516,13.484,26.239,7.043c2.14-2.051,3.022-2.373,3.953-1.442
		c1.708,1.708,1.487,3.226-0.767,5.265c-2.269,2.054-5.455,9.773-4.82,11.679c0.258,0.774-1.48,2.179-4.334,3.501
		c-2.621,1.214-6.06,3.164-7.642,4.334c-3.585,2.65-12.229,3.647-18.029,2.08c-6.432-1.738-10.302-5.675-10.904-11.093
		c-0.531-4.775,0.941-7.461,5.378-9.811c7.044-3.731,18.066,2.692,13.116,7.643c-1.864,1.864-2.818,1.446-3.922-1.72
		c-1.241-3.561-3.305-4.512-5.35-2.467c-3.957,3.958,0.667,10.387,7.471,10.387c10.737,0,12.07-12.22,1.954-17.906
		c-10.424-5.858-23.954,1.196-23.954,12.489c0,5.487,1.07,8.216,4.633,11.81c4.357,4.396,9.981,6.561,17.117,6.585l6.25,0.022v4.032
		c0,8.81,5.482,14.956,13.346,14.964c7.123,0.007,11.691-4.432,11.623-11.293c-0.036-3.583-1.412-5.814-4.653-7.54
		c-2.533-1.35-6.719-0.16-7.609,2.162c-0.764,1.988,0.098,2.675,3.354,2.675c3.418,0,4.499,2.499,2.44,5.641
		c-2.23,3.404-7.646,3.261-10.427-0.275c-3.815-4.851-1.89-11.379,4.67-15.837c4.593-3.12,7.408-3.183,13.507-0.301
		c5.667,2.678,5.779,3.413,2.23,14.646c-2.301,7.283-2.783,8.034-5.554,8.643c-4.075,0.896-10.762,7.411-11.525,11.231
		c-0.515,2.571-1.207,3.181-4.258,3.752c-2.004,0.375-5.645,1.593-8.09,2.706c-7.556,3.439-18.525,1.169-24.834-5.14
		c-4.209-4.209-4.573-10.802-0.806-14.57c6.241-6.241,18.273-3.361,17.411,4.166c-0.468,4.091-4.109,3.969-4.825-0.161
		c-0.718-4.145-4.903-4.29-6.261-0.218c-1.812,5.435,4.214,10.512,10.972,9.244c8.576-1.608,8.303-13.048-0.453-18.998
		c-4.089-2.777-11.586-3.455-15.573-1.406c-10.798,5.548-12.301,17.524-3.325,26.5c3.99,3.99,11.764,7.378,16.93,7.378
		c1.258,0,1.735,0.495,1.377,1.429c-1.377,3.587-1.709,8.326-0.76,10.823c1.293,3.402,0.652,5.152-2.688,7.341
		c-1.862,1.221-2.729,1.371-3.012,0.523c-0.86-2.581-5.779-7.458-8.79-8.716c-2.754-1.151-3.271-1.966-3.879-6.114
		c-0.713-4.858-3.35-11.481-5.729-14.383c-4.034-4.921-12.87-6.265-18.465-2.807c-10.219,6.315-7.672,21.903,3.58,21.903
		c5.284,0,8.32-2.814,7.886-7.31c-0.234-2.421-0.792-3.19-2.31-3.19c-1.438,0-2.089,0.772-2.316,2.75
		c-0.598,5.194-7.184,2.707-7.184-2.713c0-3.745,3.656-7.537,7.268-7.537c3.59,0,8.462,3.865,10.132,8.039
		c2.62,6.548,2.122,10.068-1.984,14.015c-4.86,4.672-6.415,7.97-6.415,13.61c0,4.498-0.096,4.669-1.712,3.052
		C122.409,332.51,121.959,330.712,122.156,327.988L122.156,327.988z M164.919,310.155c1.199-5.101,8.572-11.188,13.55-11.188
		c1.907,0,1.08,1.202-5.126,7.45c-4.07,4.098-7.773,7.22-8.229,6.938C164.658,313.074,164.57,311.633,164.919,310.155z
		 M88.078,299.253c-3.647-3.592-4.785-5.44-4.785-7.777c0-4.445,2.593-7.694,5.839-7.317c3.688,0.429,3.966,3.313,0.481,4.982
		c-3.514,1.685-4.099,4.338-1.289,5.841c4.312,2.308,9.969-2.296,9.969-8.112c0-2.792-2.604-7.538-4.544-8.282
		c-4.972-1.908-12.411,1.513-13.97,6.423c-0.342,1.075-0.993,1.956-1.448,1.956c-1.242,0-8.824-15.962-9.571-20.15
		c-0.612-3.433-0.476-3.688,2.301-4.299c5.656-1.242,12.237-9.962,12.229-16.202c-0.007-4.275-3.533-9.239-7.979-11.229
		l-3.942-1.766l2.499-3.677c1.374-2.022,2.86-3.677,3.304-3.677s1.316,1.703,1.94,3.785c1.928,6.436,10.315,13.215,16.35,13.215
		c7.499,0,10.573,18.393,3.689,22.076c-7.419,3.971-15.748-3.245-9.878-8.558c1.912-1.73,2.044-1.711,3.886,0.563
		c1.576,1.947,2.167,2.137,3.417,1.1c3.077-2.554-1.042-8.181-5.988-8.181c-1.244,0-3.731,1.313-5.527,2.918
		c-2.772,2.477-3.267,3.599-3.267,7.419c0,3.422,0.601,5.144,2.5,7.178c5.53,5.917,11.516,6.981,17.278,3.071l3.557-2.414
		l0.643,8.164c1.237,15.714-3.538,27.231-11.442,27.596C93.521,303.936,90.709,301.845,88.078,299.253L88.078,299.253z
		 M120.198,266.903c-5.334-2.699-9.637-8.197-11.498-14.691c-0.906-3.16-2.313-6.896-3.128-8.302
		c-1.376-2.374-1.291-2.837,1.195-6.5c2.28-3.359,2.629-4.795,2.352-9.695c-0.18-3.163-0.093-5.751,0.192-5.75
		c1.69,0.006,9.514,6.309,15.981,12.876l7.5,7.614l-4.714,0.548c-9.381,1.09-12.963,8.94-6.862,15.041
		c3.504,3.504,8.111,3.888,11.076,0.923c2.382-2.382,2.544-4.305,0.506-5.996c-1.206-1-1.986-0.919-4.028,0.419
		c-1.394,0.913-2.971,1.39-3.506,1.06c-1.658-1.025-1.068-4.36,0.963-5.447c3.305-1.769,5.961-1.158,9.643,2.215
		c2.645,2.425,3.69,4.326,4.113,7.479c0.511,3.807,0.252,4.523-2.598,7.185C132.609,270.342,127.586,270.641,120.198,266.903
		L120.198,266.903z M67.293,254.466c0-2.081,0.478-2.5,2.846-2.5c3.646,0,6.573-3.106,5.654-6.001
		c-0.374-1.179-1.202-1.93-1.84-1.668c-4.675,1.921-4.66,1.923-4.66-0.617c0-2.918,1.591-3.789,4.765-2.609
		c4.896,1.819,4.918,9.303,0.04,13.406C70.172,257.78,67.293,257.775,67.293,254.466L67.293,254.466z M196.793,249.391
		c-2.389-1.805-2.787-9.169-0.637-11.761c1.816-2.188,3.137-1.205,3.137,2.336c0,1.585,0.45,3.16,1,3.5c0.551,0.34,1,2.166,1,4.059
		C201.293,251.296,200.016,251.827,196.793,249.391z M89.546,234.573c-2.076-1.878-4.512-5.447-5.452-7.992
		c-1.633-4.42-1.626-4.638,0.185-5.606c2.664-1.426,3.015-1.289,3.015,1.18c0,3.143,4.052,8.608,6.912,9.326
		c2.772,0.696,7.38-2.165,7.921-4.918c0.764-3.888-4.564-6.339-5.554-2.555c-0.715,2.733-2.703,1.936-3.083-1.237
		c-0.228-1.905,0.238-2.685,1.857-3.107c7.976-2.086,12.342,9.063,6.023,15.381C97.484,238.929,94.22,238.799,89.546,234.573z
		 M175.311,225.835c-3.424-2.087-5.924-4.643-5.986-6.119c-0.055-1.281,3.922-0.825,7.091,0.813c1.786,0.923,4.127,1.32,5.72,0.971
		c1.587-0.349,3.461-0.033,4.553,0.766c1.77,1.294,1.728,1.458-0.904,3.528C182.318,228.521,179.732,228.531,175.311,225.835
		L175.311,225.835z"/>
	<path id="path3030" d="M310.001,529.888c-12.913-4.6-22.52-14.534-25.737-26.615c-1.719-6.458-0.446-15.731,3.29-23.961
		c0.841-1.854,1.358-3.369,1.149-3.369c-0.208,0-1.853,0.977-3.653,2.169c-8.641,5.723-21.428,10.665-27.593,10.665
		c-1.978,0-3.588-0.217-3.579-0.481s1.137-0.997,2.505-1.628c1.369-0.63,5.62-4.239,9.448-8.021
		c9.359-9.245,11.097-10.083,20.9-10.083h7.523l4.668-4.572c6.947-6.804,19.974-15.075,30.307-19.243l3.18-1.282l-5.425-3.856
		l-5.426-3.857l-0.185,5.681c-0.117,3.602-0.421,5.534-0.83,5.281c-1.519-0.938-11.152-4.031-11.633-3.734
		c-0.289,0.179-0.938,1.312-1.442,2.518c-1.309,3.132-5.741,7.13-8.471,7.643c-1.251,0.234-2.423,0.279-2.604,0.099
		s0.282-1.316,1.028-2.523c1.613-2.61,1.67-3.581,0.388-6.649c-0.891-2.132-1.06-2.24-2.086-1.341
		c-2.5,2.192-5.523,3.152-10.794,3.43c-2.971,0.156-5.402,0.173-5.402,0.038s0.549-1.51,1.22-3.055s1.414-4.01,1.651-5.478
		c0.465-2.881,0.559-2.791-3.833-3.711c-2.686-0.563-8.663-2.983-8.663-3.508c0-0.238,1.228-0.78,2.728-1.203
		s3.167-1.133,3.704-1.577c1.664-1.375,5.761-6.675,5.761-7.452c0-0.908-6.805-5.982-9.545-7.118c-1.104-0.456-2-1.012-1.993-1.233
		c0.017-0.563,8.843-4.35,11.377-4.881c1.147-0.24,2.074-0.775,2.06-1.188s-1.006-3.635-2.202-7.158
		c-1.196-3.524-2.028-6.555-1.849-6.734c0.181-0.181,3.939,1.524,8.354,3.789c6.53,3.35,8.135,3.946,8.612,3.205
		c1.247-1.936,1.996-6.189,1.663-9.438l-0.348-3.395l2.363,1.411c1.299,0.776,3.293,2.096,4.43,2.933
		c2.316,1.703,5.953,6.662,5.953,8.116c0,0.747,0.917,0.938,4.332,0.899c3.514-0.039,5.269,0.347,9.304,2.044
		c2.735,1.151,4.974,2.327,4.974,2.614s-1.517,0.723-3.369,0.969c-1.853,0.245-4.372,0.914-5.599,1.485l-2.23,1.038l6.961,0.771
		c3.829,0.424,7.236,1.046,7.572,1.383c0.784,0.783-3.193,8.697-5.758,11.455l-1.881,2.021l2.175,3.245
		c1.196,1.785,3.095,3.899,4.218,4.699l2.042,1.454l-3.378,1.018l-3.377,1.019l4.039,2.586c6.869,4.398,6.534,4.305,11.317,3.164
		c14.216-3.391,30.358-4.844,40.271-3.626c16.686,2.05,27.79,6.952,44.066,19.454l4.803,3.688l6.581,0.676
		c10.468,1.074,21.981,4.175,29.325,7.896c6.758,3.426,7.012,2.335,1.788-7.675c-2.328-4.46-4.119-8.223-3.98-8.361
		c0.139-0.138,1.379,0.225,2.757,0.806c1.377,0.581,4.237,1.459,6.354,1.952s4.355,1.052,4.973,1.241
		c0.865,0.266,1.123-0.029,1.123-1.28c0-1.722,1.209-5.639,3.135-10.162l1.166-2.737l1.63,3.209c0.896,1.765,2.768,4.49,4.158,6.057
		l2.528,2.848l1.935-1.378c3.031-2.158,6.554-6.356,6.975-8.313c1.02-4.745,1.352-4.521,3.522,2.39
		c1.164,3.706,2.152,6.799,2.197,6.872c0.185,0.308,8.417-2.493,8.977-3.054c1.56-1.559,1.953-0.421,1.812,5.238
		c-0.121,4.813-0.421,6.339-1.693,8.615l-1.546,2.767l1.829,0.758c1.61,0.667,2.463,0.486,7.146-1.518
		c5.282-2.26,16.336-5.313,21.478-5.933c4.693-0.566,7.536-0.837,9.187-0.876c0.883-0.021,2.376-0.687,3.318-1.48
		c14.688-12.369,29.205-19.412,44.487-21.583c10.078-1.432,30.558,0.229,43.263,3.508l3.479,0.898l3.9-2.215
		c2.145-1.217,4.691-2.749,5.658-3.402l1.758-1.189l-3.201-0.82c-3.379-0.866-4.03-1.637-1.944-2.299
		c0.692-0.22,2.527-2.214,4.078-4.433l2.819-4.032l-1.747-1.392c-1.319-1.05-5.765-8.861-6.63-11.647
		c-0.179-0.576,6.868-1.8,10.728-1.863c3.139-0.052,3.645-0.211,3.028-0.953c-0.813-0.979-5.458-2.317-8.044-2.317
		c-2.604,0-1.926-0.998,1.911-2.814c4.664-2.208,8.978-3.141,12.272-2.652c2.589,0.383,2.683,0.334,3.114-1.633
		c0.552-2.509,4.191-6.638,7.978-9.05c3.891-2.479,4.583-2.396,3.796,0.456c-0.469,1.695-0.376,3.121,0.366,5.614
		c1.619,5.44,1.165,5.406,10.307,0.789c4.54-2.293,8.384-4.04,8.541-3.883s-0.209,1.523-0.814,3.036s-1.756,4.814-2.557,7.337
		l-1.457,4.586l2.189,0.355c2.467,0.4,11.105,4.224,11.105,4.915c0,0.247-1.082,0.939-2.406,1.538
		c-1.323,0.6-3.815,2.316-5.539,3.814c-3.712,3.229-3.666,3.925,0.551,8.325c2.045,2.135,3.675,3.184,5.765,3.71
		c1.603,0.403,2.914,0.948,2.914,1.21c0,0.716-6.944,3.23-10.126,3.666l-2.789,0.383l0.436,2.634
		c0.239,1.449,0.973,4.062,1.63,5.805c0.656,1.744,1.128,3.206,1.049,3.249c-0.08,0.043-2.786-0.096-6.013-0.309
		c-5.056-0.333-6.233-0.641-8.514-2.221c-1.456-1.009-2.728-1.72-2.826-1.579c-0.694,0.99-1.723,4.072-1.723,5.162
		c0,0.725,0.471,2.31,1.047,3.522c0.575,1.213,0.913,2.339,0.75,2.501c-0.162,0.163-1.626-0.157-3.251-0.711
		c-3.086-1.052-5.271-3.318-7.301-7.574c-0.609-1.277-1.289-2.323-1.511-2.323c-0.221,0-2.965,0.866-6.097,1.925
		c-3.133,1.059-5.785,1.925-5.896,1.925s-0.204-1.371-0.208-3.048c0-1.676-0.181-4.097-0.393-5.379l-0.386-2.33l-4.259,3.201
		c-2.343,1.761-4.621,3.346-5.063,3.522c-1.244,0.497-0.949,1.335,0.642,1.823c4.951,1.52,18.908,9.281,25.563,14.216
		c1.911,1.416,5.278,4.379,7.483,6.584c3.554,3.554,4.21,3.957,5.775,3.549c5.563-1.449,11.848-0.686,16.945,2.059
		c1.644,0.885,5.326,4.009,8.184,6.941c2.857,2.934,6.35,6.247,7.76,7.364c10.187,8.068-12.63,1.956-25.849-6.924
		c-2.725-1.831-4.954-3.224-4.954-3.097c0,0.128,0.698,1.495,1.552,3.04c2.048,3.705,4.864,14.194,4.865,18.115
		c0,14.125-11.437,28.536-26.551,33.453c-4.685,1.523-6.219,1.736-10.663,1.479c-4.566-0.265-5.856-0.643-10.707-3.133
		c-8.617-4.424-14.064-11.292-16.563-20.883c-1.24-4.76-1.222-7.604,0.073-11.402c1.365-4.009,6.495-9.221,11.472-11.655
		c3.506-1.715,4.391-1.873,9.883-1.772c4.813,0.089,6.368,0.359,7.7,1.34c0.917,0.676,2.871,1.419,4.341,1.652
		c2.393,0.379,3.77,0.92,8.235,3.232c0.706,0.366,4.243,0.783,7.86,0.927c3.618,0.145,6.577,0.492,6.577,0.772
		c0,0.279-1.46,1.822-3.245,3.427c-3.65,3.282-8.777,5.938-12.668,6.56c-2.513,0.401-2.582,0.478-1.937,2.106
		c1.067,2.692,0.85,11.525-0.386,15.646c-0.608,2.029-1.326,3.69-1.597,3.69c-0.864,0-8.732-8.57-10.31-11.229
		c-0.838-1.412-1.611-2.682-1.719-2.821c-0.108-0.14-1.43,0.879-2.938,2.264c-1.507,1.386-3.453,3.016-4.326,3.623
		c-1.239,0.863-1.66,1.839-1.925,4.456l-0.339,3.352l-2.246-4.153c-2.016-3.728-2.242-4.646-2.208-8.966
		c0.044-5.559,1.42-8.879,4.975-12c1.771-1.554,2.076-2.155,1.562-3.074c-0.428-0.764-0.418-1.863,0.029-3.32l0.668-2.177
		l-2.353,0.426c-3.507,0.635-7.932,4.172-10.021,8.011c-3.104,5.702-2.235,12.284,2.576,19.534
		c8.759,13.194,23.473,15.82,37.21,6.639c9.022-6.03,13.173-15.089,12.266-26.771c-0.428-5.508-2.355-13-4.377-17.011
		c-3.617-7.177-11.173-15.402-19.64-21.382c-2.378-1.679-4.469-3.207-4.646-3.396c-0.793-0.848-7.206-3.929-12.058-5.792
		c-5.22-2.005-5.353-2.022-7.059-0.896c-0.956,0.631-3.544,2.044-5.75,3.14l-4.013,1.992l5.102,2.006
		c6.821,2.682,14.208,7.529,19.25,12.633c2.274,2.302,3.999,4.321,3.833,4.487c-0.167,0.166-1.595,0.008-3.173-0.352
		c-1.578-0.36-7.923-0.712-14.1-0.781c-10.167-0.114-11.479-0.259-13.876-1.527c-4.791-2.536-7.523-7.343-6.323-11.124
		c0.386-1.217,0.273-1.364-0.741-0.968c-4.9,1.916-11.849,3.917-18.154,5.229c-4.085,0.85-7.471,1.547-7.525,1.55
		c-0.054,0.003,1.905,1.939,4.354,4.303c5.732,5.533,8.174,10.313,9.017,17.651c0.887,7.712,1.607,9.909,4.182,12.759
		c1.264,1.399,2.133,2.709,1.93,2.912c-1.065,1.065-9.083-3.314-13.514-7.383c-2.408-2.212-6.116-7.976-7.575-11.774
		c-1.689-4.396-2.6-11.201-1.954-14.612l0.546-2.888l-20.979,0.011l-20.978,0.011l-3.453,2.948c-1.899,1.622-5.233,4.1-7.409,5.505
		l-3.956,2.556l3.165-0.304c2.646-0.254,3.862,0.039,7.419,1.79c2.339,1.151,5.294,3.025,6.566,4.164
		c3.593,3.216,10.592,7.796,13.319,8.717l2.468,0.834l-2.566,0.791c-6.281,1.938-25.214,0.361-30.993-2.58
		c-4.666-2.376-6.15-4.289-5.733-7.395l0.345-2.574l-2.343,1.008c-4.636,1.993-9.339,3.456-13.365,4.157
		c-4.497,0.783-4.553,0.909-2.311,5.312c1.086,2.135,0.394,2.975-2.388,2.896c-0.883-0.025-3.127,0.165-4.987,0.423
		c-2.688,0.372-3.32,0.681-3.077,1.5c0.334,1.123-1.116,9.464-1.757,10.104c-0.216,0.216-1.104-0.452-1.974-1.485
		c-0.87-1.033-2.987-2.753-4.705-3.821l-3.123-1.941l-1.167,1.548c-1.476,1.955-10.813,7.954-11.426,7.341
		c-0.252-0.252-0.913-3.343-1.469-6.869c-0.557-3.525-1.113-6.699-1.238-7.052c-0.5-1.416-2.295,4.339-2.295,7.358
		c0,1.775-0.246,3.229-0.547,3.229c-0.867,0-4.511-8.41-5.187-11.971c-0.337-1.78-0.466-3.803-0.285-4.494
		c0.29-1.107-0.039-1.274-2.762-1.399c-5.343-0.245-10.597-1.421-16.47-3.687c-3.124-1.205-5.805-2.191-5.958-2.191
		c-0.154,0,0.02,0.559,0.385,1.241c1.151,2.151,0.731,3.954-1.421,6.101c-2.689,2.681-7.661,4.501-15.03,5.503
		c-6.427,0.873-19.748,0.6-20.774-0.426c-0.424-0.425,0.642-1.3,3.173-2.605c2.096-1.081,6.65-4.129,10.12-6.773
		c7.146-5.446,11.123-7.23,14.967-6.715c1.414,0.189,2.571,0.254,2.571,0.143s-1.851-1.371-4.113-2.801
		c-2.263-1.429-5.697-3.888-7.633-5.464c-3.058-2.49-3.842-2.834-5.992-2.623c-4.311,0.421-32.339,0.344-35.675-0.099
		c-2.935-0.389-3.17-0.323-2.843,0.791c1.604,5.479,0.688,12.678-2.445,19.183c-2.553,5.299-5.69,9.127-10.207,12.45
		c-3.463,2.548-9.114,5.03-9.828,4.316c-0.232-0.232,0.47-1.357,1.561-2.499c2.532-2.65,4.025-6.293,4.025-9.823
		c0-9.084,4.233-17.005,12.727-23.813l1.498-1.2l-8.235-1.785c-4.529-0.982-10.625-2.603-13.545-3.602l-5.31-1.815l0.379,2.021
		c0.489,2.61-0.564,5.335-3.065,7.929c-3.194,3.312-6.319,3.969-20.063,4.219c-6.705,0.122-12.73,0.461-13.389,0.753
		c-3.181,1.411,3.185-5.71,8.837-9.886c4.106-3.033,12.912-7.588,15.779-8.161c1.061-0.212,1.922-0.566,1.914-0.787
		c-0.007-0.221-2.535-1.729-5.617-3.353l-5.604-2.953l-3.206,1.092c-8.001,2.726-15.05,6.824-22.96,13.353
		c-12.505,10.319-18.554,21.268-19.47,35.239c-0.801,12.219,2.528,19.739,11.509,25.999c6.543,4.561,10.166,5.845,16.566,5.871
		c5.119,0.021,5.896-0.155,10.377-2.37c5.751-2.842,9.714-6.913,12.767-13.113c2.886-5.861,3.198-10.915,0.948-15.354
		c-2.389-4.714-5.918-7.604-10.696-8.756c-1.564-0.377-1.604-0.302-1.554,3.063c0.044,3.025,0.29,3.652,2,5.091
		c4.974,4.185,6.409,13.97,3.029,20.649c-2.701,5.338-3.476,5.647-3.476,1.388c0-3.337-0.133-3.629-2.406-5.311
		c-1.324-0.979-3.29-2.604-4.37-3.612l-1.963-1.834l-1.063,2.228c-1.068,2.241-9.81,11.904-10.769,11.904
		c-0.703,0-2.396-6.014-2.898-10.291c-0.361-3.078,0.147-6.606,1.435-9.962c0.257-0.668-0.146-0.923-1.458-0.923
		c-4.076,0-10.978-3.557-14.641-7.546l-2.203-2.399l5.569-0.414c5.359-0.398,8.233-1.192,14.046-3.881
		c1.486-0.688,3.26-1.157,3.941-1.044c0.683,0.112,1.879-0.372,2.658-1.078c1.176-1.063,2.518-1.321,7.836-1.506
		c6.132-0.213,6.594-0.134,10.362,1.782c5.082,2.584,8.746,6.006,10.716,10.009c1.281,2.604,1.557,4.097,1.501,8.12
		c-0.06,4.258-0.386,5.598-2.397,9.833c-4.183,8.808-11.588,15.564-19.628,17.908C321.813,531.454,314.101,531.349,310.001,529.888
		L310.001,529.888z M675.259,508.599c-0.17-6.188-1.427-9.06-4.838-11.052c-2.04-1.191-2.122-1.191-3.411-0.024
		c-2.577,2.332-0.37,9.04,5.02,15.254C675.062,516.274,675.456,515.765,675.259,508.599L675.259,508.599z M320.032,506.209
		c0.663-1.529,1.206-4.051,1.206-5.603c0-2.478-0.197-2.872-1.609-3.227c-2.055-0.516-4.438,1.011-5.854,3.749
		c-1.199,2.319-1.929,9.679-1.233,12.45l0.453,1.805l2.916-3.197C317.514,510.428,319.369,507.739,320.032,506.209L320.032,506.209z
		 M334.315,507.446c-0.151-1.269-0.999-3.797-1.884-5.619c-1.665-3.431-3.994-4.961-6.538-4.296
		c-1.048,0.274-1.153,0.729-0.801,3.478c0.438,3.417,1.763,5.257,6.045,8.402C334.02,511.528,334.75,511.077,334.315,507.446
		L334.315,507.446z M657.249,508.655c1.88-1.419,3.855-3.426,4.39-4.46c1.331-2.572,1.278-6.357-0.096-6.885
		c-1.687-0.647-5.451,1.821-6.808,4.465c-1.183,2.303-2.178,9.46-1.315,9.46C653.646,511.235,655.369,510.074,657.249,508.655
		L657.249,508.655z M493.274,496.836c1.022-1.038,1.858-2.337,1.858-2.888c-0.001-1.091-2.06-6.804-2.674-7.418
		c-0.208-0.209-1.714,0.269-3.345,1.061c-2.717,1.32-2.965,1.636-2.965,3.772c0,1.283,0.327,3.962,0.728,5.954l0.728,3.622
		l1.905-1.108C490.557,499.221,492.252,497.874,493.274,496.836z M505.903,490.72c-0.281-4.739-1.353-7.835-3.432-9.914
		c-0.95-0.95-1.188-0.903-2.952,0.581c-1.055,0.888-2.329,1.614-2.832,1.614c-1.18,0-1.157,1.712,0.066,5.182
		c1.155,3.273,2.196,4.54,6.079,7.392C506.248,498.083,506.332,497.95,505.903,490.72L505.903,490.72z M314.424,494.99
		c1.768-1.414,1.813-1.58,1.029-3.749l-0.82-2.27l-3.275,1.271c-1.801,0.7-5.151,1.761-7.446,2.357l-4.171,1.085l3.529,1.362
		C308.087,496.907,312.055,496.886,314.424,494.99L314.424,494.99z M681.925,495.782c3.836-1.221,5.183-2.045,4.279-2.618
		c-0.448-0.285-1.344-0.521-1.991-0.527c-0.646-0.005-3.358-0.884-6.025-1.951c-2.667-1.068-4.881-1.862-4.92-1.765
		s-0.562,1.114-1.162,2.261l-1.092,2.083l2.364,1.606C675.931,496.605,678.485,496.877,681.925,495.782L681.925,495.782z
		 M486.791,484.752c3.575-1.644,3.978-1.989,2.815-2.423c-0.745-0.277-2.045-1.374-2.888-2.437l-1.532-1.932l-2.885,1.397
		c-3.528,1.708-4.473,3.478-4.484,8.401l-0.01,3.797l2.407-2.443C481.538,487.77,484.498,485.807,486.791,484.752L486.791,484.752z
		 M515.391,487.926c0.18-0.467-0.259-2.214-0.974-3.882l-1.3-3.032l-3.218,0.146c-3.014,0.138-3.963,0.665-2.654,1.473
		c0.31,0.191,0.891,1.652,1.292,3.247l0.73,2.898h2.898C513.98,488.777,515.187,488.458,515.391,487.926L515.391,487.926z
		 M479.552,475.213c-0.494-0.276-1.583-1.058-2.421-1.735c-1.344-1.089-1.752-1.136-3.472-0.4c-1.071,0.459-2.887,1.182-4.034,1.606
		c-1.146,0.425-2.085,1.012-2.085,1.304c0,0.8,3.92,3.562,5.999,4.226c1.631,0.521,2.103,0.311,4.369-1.956
		C479.866,476.3,480.244,475.6,479.552,475.213L479.552,475.213z M525.481,478.843c5.131-1.744,8.893-3.481,13.606-6.282
		c4.752-2.823,11.398-7.571,11.065-7.904c-0.537-0.537-10.565,1.295-16.626,3.037c-6.812,1.958-6.854,1.981-8.786,5.092
		c-1.223,1.966-3.146,3.864-5.19,5.122c-1.786,1.1-3.107,2.226-2.937,2.503C516.994,481.025,521.307,480.262,525.481,478.843
		L525.481,478.843z M465.215,478.349c-2.086-2.248-4.092-5.24-4.092-6.104c0-0.295,1.083-0.436,2.406-0.313
		c1.75,0.162,2.138,0.052,1.422-0.404c-2.164-1.377-14.721-5.112-19.549-5.815c-8.602-1.253-8.106-1.231-7.338-0.306
		c1.54,1.855,12.128,8.573,16.642,10.559c3.946,1.736,10.945,4.29,12.157,4.436C467.022,480.419,466.28,479.497,465.215,478.349
		L465.215,478.349z M514.223,476.583c2.012-0.707,4.204-1.832,4.871-2.5c1.19-1.189,1.142-1.234-2.551-2.342
		c-4.796-1.438-10.321-1.879-12.588-1.003c-1.511,0.584-1.765,1.045-1.765,3.211c0,2.175,0.247,2.619,1.765,3.174
		C506.772,478.151,510.286,477.966,514.223,476.583L514.223,476.583z M485.507,472.563c0-0.447,0.712-1.861,1.582-3.143l1.583-2.328
		l-1.885-2.602c-1.556-2.147-2.604-2.823-6.007-3.875c-4.989-1.541-8.749-2.286-8.749-1.733c0,0.224,1.365,2.756,3.033,5.627
		c1.897,3.265,3.977,5.903,5.551,7.043C483.264,473.471,485.507,473.934,485.507,472.563L485.507,472.563z M501.88,466.188
		c1.929-2.914,2.82-9.072,1.969-13.607l-0.432-2.302l-4.698,4.009c-4.953,4.228-7.436,7.646-7.436,10.237
		c0,1.395,0.271,1.56,2.559,1.546c1.658-0.01,3.183,0.471,4.331,1.364c0.976,0.758,1.807,1.395,1.848,1.414
		S500.898,467.671,501.88,466.188L501.88,466.188z M512.722,464.343c1.902-2.261,2.485-4.083,2.189-6.844l-0.208-1.937l-3.529,1.068
		l-3.529,1.068l-0.414,3.187c-0.228,1.752-0.62,3.691-0.871,4.309c-0.39,0.959-0.08,1.123,2.122,1.123
		C510.574,466.318,511.375,465.945,512.722,464.343L512.722,464.343z M489.704,458.569c1.021-1.974,1.02-1.977-1.928-5.126
		l-2.947-3.152l-0.623,1.639c-0.896,2.354-0.787,6.044,0.179,6.062c0.441,0.008,1.524,0.578,2.406,1.269
		c0.883,0.69,1.669,1.262,1.748,1.27S489.142,459.655,489.704,458.569z M421.339,459.191c0-0.765-6.624-5.066-12.191-7.917
		c-2.647-1.355-5.102-2.674-5.455-2.93c-1.712-1.239-14.194-5.082-19.892-6.123c-8.857-1.618-25.503-1.651-33.047-0.066
		c-8.63,1.814-8.419,1.643-4.462,3.635c14.288,7.189,36.497,12.778,54.192,13.636C408.458,459.811,421.339,459.667,421.339,459.191
		L421.339,459.191z M598.122,458.241c9.854-1.22,17.393-2.954,26.604-6.122c8.901-3.062,19.275-7.545,19.275-8.33
		c0-0.314-0.14-0.571-0.312-0.571c-0.171,0-4.142-0.614-8.823-1.365c-7.098-1.139-10.057-1.299-17.815-0.967
		c-17.021,0.728-29.001,4.357-44.275,13.417c-3,1.779-5.861,3.551-6.358,3.936c-0.669,0.52,1.578,0.784,8.663,1.021
		C585.954,459.625,587.488,459.556,598.122,458.241L598.122,458.241z M305.32,441.671c1.221-2.948,1.515-10.065,0.495-11.972
		c-0.484-0.905-1.35-1.241-3.196-1.241c-2.217,0-2.593,0.22-3.017,1.765c-0.846,3.085-0.389,8.171,1.021,11.356
		c0.751,1.696,1.38,3.697,1.398,4.446c0.032,1.32,0.066,1.314,1.123-0.184C303.743,444.992,304.722,443.115,305.32,441.671
		L305.32,441.671z M686.839,442.416c1.386-3.864,1.888-9.975,1.068-13.021c-0.29-1.083-0.763-1.267-2.718-1.061
		c-3.287,0.348-3.971,1.528-3.971,6.859c0,3.624,0.342,5.251,1.662,7.898c0.913,1.834,1.854,3.334,2.091,3.334
		S686.048,444.621,686.839,442.416L686.839,442.416z M292.629,440.19c2.364-1.657,2.641-2.137,2.818-4.895l0.196-3.058l-1.801,0.922
		c-0.991,0.508-3.006,1.122-4.479,1.367c-2.875,0.478-3.191,0.899-4.037,5.396l-0.527,2.803l2.604-0.35
		C288.837,442.185,291.187,441.201,292.629,440.19L292.629,440.19z M702.153,438.579l-0.745-3.355l-3.85-1.007
		c-2.118-0.554-4.176-1.208-4.573-1.454c-0.479-0.295-0.807,0.426-0.969,2.129c-0.21,2.2,0.037,2.842,1.697,4.409
		c2.352,2.22,3.104,2.518,6.526,2.583l2.658,0.051L702.153,438.579z M317.898,438.012l0.19-2.859l-3.676-0.771
		c-2.021-0.424-3.738-0.702-3.816-0.619c-0.077,0.083-0.241,1.277-0.364,2.655c-0.222,2.482-0.197,2.514,2.984,3.637
		c1.765,0.623,3.497,1.062,3.85,0.975C317.42,440.942,317.794,439.584,317.898,438.012L317.898,438.012z M673.94,440.169l3.42-1.123
		v-2.938v-2.937l-3.813,0.931c-2.096,0.513-3.93,1.257-4.073,1.654c-0.344,0.945,0.222,5.535,0.682,5.535
		c0.195,0,1.895-0.506,3.775-1.123H673.94z M325.448,430.962c0.694-1.124-3.065-5.9-5.861-7.446
		c-3.207-1.773-7.975-2.644-7.975-1.456c0,0.452-0.721,1.769-1.603,2.925c-1.459,1.913-1.512,2.192-0.592,3.112
		c0.557,0.557,1.58,1.315,2.274,1.688C314.731,431.411,324.646,432.259,325.448,430.962L325.448,430.962z M674.779,429.973
		c1.223-0.507,2.714-1.367,3.315-1.911c1.023-0.926,0.995-1.132-0.458-3.273c-0.853-1.256-1.551-2.532-1.551-2.836
		c0-0.981-3.45-0.56-6.417,0.783c-3.276,1.483-6.11,3.954-7.43,6.481c-0.841,1.608-0.806,1.738,0.538,2.001
		C665.214,431.695,672.436,430.945,674.779,429.973L674.779,429.973z M290.988,430.41c1.182-0.339,3.116-1.354,4.3-2.258
		l2.153-1.642l-1.577-2.324c-0.867-1.277-1.577-3.158-1.577-4.179c0-1.124-0.412-2.015-1.046-2.258
		c-1.579-0.605-5.28,1.684-7.872,4.871c-1.271,1.563-3.264,3.927-4.428,5.253c-2.094,2.388-2.101,2.416-0.642,2.695
		C283.116,431.107,288.853,431.022,290.988,430.41L290.988,430.41z M706.357,430.622l2.358-0.391l-3.584-4.255
		c-5.867-6.966-7.654-8.426-10.311-8.426c-0.96,0-1.317,0.573-1.581,2.536c-0.187,1.396-0.948,3.391-1.69,4.434l-1.351,1.896
		l1.977,1.663c1.087,0.914,2.748,1.832,3.691,2.039c0.943,0.208,2.004,0.474,2.356,0.591
		C699.328,431.079,703.894,431.029,706.357,430.622L706.357,430.622z M324.775,418.443c2.048-2.209,4.215-5.923,3.649-6.252
		c-0.247-0.144-2.947-0.464-6-0.712l-5.55-0.45l-1.268,3.398l-1.268,3.397l2.968,1.061
		C321.611,420.422,323.017,420.339,324.775,418.443L324.775,418.443z M670.7,418.548l2.636-0.691l-1.306-3.436l-1.306-3.436
		l-5.821,0.453c-3.201,0.249-5.938,0.566-6.08,0.706c-0.142,0.14,0.591,1.626,1.627,3.303c2.072,3.351,4.354,4.87,6.332,4.217
		C667.488,419.431,669.251,418.929,670.7,418.548L670.7,418.548z M286.826,416.462l1.442-1.089l-1.322-2.436
		c-1.102-2.03-1.661-2.437-3.365-2.441c-1.124-0.003-2.835,0.296-3.802,0.663l-1.759,0.669l3.16,2.832
		c1.738,1.558,3.396,2.845,3.682,2.86S286.032,417.06,286.826,416.462L286.826,416.462z M705.477,415.144
		c1.674-1.324,3.182-2.67,3.35-2.991c0.308-0.589-3.321-2.163-5.195-2.254c-0.555-0.027-1.782,1.132-2.727,2.575l-1.719,2.624
		l1.444,1.205c0.794,0.662,1.524,1.214,1.623,1.226S703.802,416.467,705.477,415.144L705.477,415.144z M312.849,412.235
		c0.738-2.218,2.195-5.067,3.238-6.333c1.043-1.265,1.714-2.482,1.491-2.705c-0.862-0.863-5.104-0.34-7.096,0.875
		c-2.228,1.358-4.64,4.753-4.644,6.537c-0.001,0.594,0.567,1.261,1.265,1.481c0.696,0.222,1.871,1.251,2.61,2.289
		s1.444,1.888,1.568,1.888S312.112,414.453,312.849,412.235L312.849,412.235z M681.307,409.538c-0.713-4.283-4.15-6.746-9.417-6.746
		h-3.678l1.712,1.347c1.777,1.397,4.144,5.589,5.47,9.685l0.767,2.369l2.681-2.681C680.589,411.764,681.447,410.38,681.307,409.538
		L681.307,409.538z M698.013,410.618c0.671-1.06,1.769-3.904,2.438-6.32s1.427-4.939,1.684-5.606
		c0.363-0.946-0.792-0.536-5.252,1.863c-6.692,3.6-8.293,4.912-9.965,8.173c-1.221,2.381-1.221,2.406,0.022,2.406
		c0.69,0,2.065,0.821,3.055,1.825l1.798,1.824l2.5-1.119C695.669,413.048,697.342,411.677,698.013,410.618L698.013,410.618z
		 M298.311,412.604c1.492-0.956,2.845-1.834,3.006-1.95c0.864-0.628-2.543-4.957-5.37-6.824c-3.551-2.346-10.019-5.739-10.313-5.413
		c-0.241,0.268,3.191,11.668,3.817,12.681c0.63,1.018,4.281,3.239,5.33,3.242C295.231,414.34,296.819,413.56,298.311,412.604z
		 M306.324,402.672c1.961-2.113,1.647-4.001-1.204-7.248c-2.219-2.528-3.133-2.836-3.133-1.057c0,0.661-0.592,2.54-1.315,4.176
		l-1.315,2.975l2.115,2.52c1.818,2.165,2.196,2.368,2.686,1.439C304.469,404.882,305.445,403.621,306.324,402.672L306.324,402.672z
		 M686.707,397.396c-0.722-2.15-1.407-4.053-1.525-4.228c-0.403-0.6-4.563,4.425-4.954,5.984c-0.29,1.155,0.161,2.289,1.744,4.388
		l2.136,2.831l1.955-2.534l1.955-2.533L686.707,397.396z M395.993,518.935c-0.218-0.353-0.107-0.642,0.245-0.642
		c0.354,0,0.82,0.289,1.039,0.642c0.218,0.354,0.107,0.642-0.245,0.642C396.678,519.577,396.212,519.289,395.993,518.935z
		 M413.373,445.941c-5.522-4.208-5.829-5.335-5.829-21.458v-13.922l1.772,1.696c4.377,4.191,11.566,16.519,13.571,23.27
		c1.6,5.388,1.359,8.473-0.843,10.831C419.512,449.069,417.341,448.964,413.373,445.941L413.373,445.941z M567.87,447.907
		c-2.134-0.418-3.557-2.44-3.908-5.555c-0.722-6.402,6.274-21.29,14.105-30.017l2.088-2.328l-0.062,13.878
		c-0.067,15.13-0.345,16.58-3.873,20.32c-2.191,2.323-5.004,4.179-6.149,4.058C569.618,448.215,568.627,448.054,567.87,447.907
		L567.87,447.907z"/>
	<g id="g2848" transform="translate(-32.105237,129.94507)">
		<path id="path2237" sodipodi:nodetypes="cssacssssssssssssssssssssssssssssascc" d="M402.797,256.667
			c-6.633-3.604-8.435-5.704-6.951-8.104c0.605-0.98,3.724-0.026,7.895,2.419c8.999,5.273,18.274,4.665,25.39,0.083
			c7.703-4.962,9.415-10.537,11.286-25.065c0.579-19.839-15.367-37.263-42.711-46.67c-11.613-3.996-42.838-10.44-44.163-9.116
			c-0.55,0.551,0.914,2.999,3.254,5.44c4.127,4.308,9.216,15.913,9.216,21.018c0,5.114-6.902,16.581-11.371,18.892
			c-2.526,1.307-7.816,2.375-11.757,2.375c-9.609,0-17.181-6.629-17.181-15.043c0-5.875,3.344-10.754,7.371-10.754
			c3.022,0,2.952,3.903-0.115,6.449c-1.33,1.104-2.419,3.643-2.419,5.643c0,11.446,22.027,11.17,27.272-0.342
			c4.086-8.969-0.035-22.05-9.44-29.964c-4.313-3.628-20.391-10.809-24.204-10.809c-4.449,0-33.92-13.723-40.951-19.069
			c-9.463-7.195-20.354-23.535-17.554-26.336c2.491-2.491,4.308-0.813,9.957,9.197c9.19,16.284,29.295,25.185,57.339,25.383
			c32.806,0.231,54.584-11.889,56.808-31.617c1.407-12.492-7.508-23.662-18.886-23.662c-10.118,0-14.938,9.122-8.094,15.316
			c4.023,3.642,4.112,5.644,0.25,5.644c-6.666,0-10.825-9.234-7.616-16.913c4.423-10.586,15.3-12.656,27.789-5.288
			c10.384,6.127,14.927,22.94,9.626,35.626c-5.559,13.303-25.644,24.228-48.457,26.358c-13.361,1.248-11.387,2.506,9.54,6.081
			c24.535,4.19,44.771,9.895,58.016,16.353c33.24,16.208,40.171,49.639,25.31,71.466c-2.43,3.568-4.809,4.471-7.716,5.893
			c-3.059,1.497-4.422,2.335-9.879,2.606C411.731,260.549,407.378,259.156,402.797,256.667L402.797,256.667z"/>
	</g>
	<g id="layer1-2" transform="matrix(0.26188813,0,0,0.26188813,173.14542,-12.140911)" inkscape:label="Layer 1">
		<path id="path3103" d="M350.593,267.095c-105.585,0.086-206.542,43.435-276.717,123.062
			C56.19,410.223,21.802,458.934-2.47,498.408C-67.129,603.557-108.871,642.71-170.406,655.97
			c-65.279,14.066-141.74-40.865-141.688-101.721c0.037-40.489,22.541-77.286,55.658-91.124c22.336-9.333,29.078-9.416,50.937-0.28
			c25.096,10.486,39.437,34.135,29.999,49.405c-3.207,5.187-10.064,2.614-19.312-7.312c-25.987-27.893-58.156-15.356-58.156,22.687
			c0,24.727,23.899,43.375,55.561,43.375c51.992,0,84.691-59.04,58.156-104.999c-19.763-34.232-56.933-52.086-100.469-48.342
			c-99.346,8.536-150.738,135.323-90.061,222.062c13.085,18.704,38.024,40.063,62.281,53.376
			c34.839,19.115,48.133,22.221,95.938,22.187c44.881-0.034,63.884-3.893,98.75-20.188
			c58.466-27.326,136.401-104.175,193.405-190.72c56.546-85.836,98.847-125.959,156.406-148.251
			c102.859-39.829,205.762-13.268,294.75,75.969c124.498,124.844,135.644,285.088,22.784,328.187
			c-31.23,11.929-35.007,11.877-66.345-0.093c-44.523-17.004-66.718-48.789-66.718-95.468c0-31.047,3.14-38.531,24.126-57.28
			c27.639-24.697,46.862-27.24,65.562-8.658c12.436,12.358,11.962,12.984-10.471,15.188c-31.763,3.125-47.052,25.461-37.092,54.032
			c21.277,61.039,111.115,15.576,98.813-50.001c-15.576-83.013-117.07-93.063-152.469-15.091
			c-63.455,139.76,97.288,259.754,212.467,158.625c38.099-33.452,49.815-61.095,49.502-116.533
			c-0.309-54.577-17.675-106.614-58.063-173.686c-14.315-23.776-24.495-44.725-22.594-46.627
			c10.765-10.765,185.056,118.778,232.812,173.034c46.984,53.372,64.313,121.794,41.842,165.248
			c-12.387,23.962-24.563,30.096-59.529,30.096c-29.734,0-48.062-16.206-48.062-42.596v-19.405l15.091,16.217
			c19.316,20.733,40.183,20.606,54.815-0.28c15.881-22.676,14.431-54.662-3.281-72.375c-18.693-18.693-34.385-18.652-65.282,0.186
			c-59.883,36.51-54.443,119.725,9.718,148.908c36.954,16.806,44.602,16.735,82.283-0.377
			c23.134-10.504,34.448-22.172,47.313-48.748c15.057-31.107,16.348-41.734,12.093-97.094c-2.625-34.187-3.915-62.098-2.875-62.094
			c1.044,0,19.211,6.582,40.377,14.625c83.043,31.565,141.931,40.783,261.279,40.843c93.708,0.045,122.816-2.577,158.625-14.312
			c94.778-31.066,145.093-97.653,144.876-191.906c-0.156-68.12-19.182-104.917-66.345-128.719
			c-35.943-18.141-88.935-21.96-123.719-8.845c-31.957,12.048-68.377,51.399-76.906,83.062
			c-14.83,55.073,20.476,109.034,71.346,109.034c32.408,0,69.873-31.282,69.873-58.283c0-27.244-19.528-52.75-40.28-52.75
			c-24.342,0-36.107,17.179-30.189,44.125c5.482,24.958-3.095,29.28-21.531,10.844c-37.651-37.651,21.538-106.781,91.437-106.781
			c43.002,0,82.003,51.522,82.003,108.437c0,99.745-117.793,173.008-277.44,172.627c-63.552-0.153-165.624-17.619-214.872-36.812
			l-22.191-8.659l27.594-14.312c43.293-22.392,62.128-73.117,41.812-112.658c-26.487-51.552-70.991-73.468-109.123-53.749
			c-26.296,13.599-33.788,32.177-23.72,58.656c11.284,29.675,41.015,33.527,66.908,8.718l21.031-20.185l8.562,15.967
			c22.53,42.1-19.532,78.707-81.22,70.656c-50.993-6.656-157.726-61.848-248.03-128.249
			c-109.701-80.664-159.527-109.273-228.032-131.001c-36.256-11.5-73.076-17.63-109.5-18.563
			C357.398,267.133,354.001,267.092,350.593,267.095L350.593,267.095z"/>
	</g>
	<path id="path3028" d="M131.799,543.233c-10.072-1.471-16.078-6.754-18.711-16.459c-2.686-9.9,3.222-21.268,13.589-26.151
		c3.81-1.794,4.558-1.92,9.867-1.667c4.699,0.226,6.427,0.62,9.494,2.172c4.256,2.153,6.267,4.53,6.267,7.409
		c0,2.591-1.528,4.032-4.274,4.032c-2.688,0-3.879-1.757-3.296-4.864c0.341-1.818,0.164-2.216-1.278-2.873
		c-2.27-1.034-9.02-0.965-11.605,0.119c-8.434,3.534-11.413,12.979-6.927,21.958c2.697,5.396,6.836,8.186,13.736,9.256
		c9.076,1.408,25.732-1.063,40.762-6.048c15.958-5.292,23.537-10.158,26.481-17.003c4.263-9.908-3.088-22.775-13.011-22.775
		c-3.797,0-9.262,2.265-11.811,4.895l-2.213,2.282l1.429,1.521c1.693,1.802,1.787,2.923,0.411,4.888
		c-1.339,1.911-5.167,2.028-6.151,0.188c-1.862-3.479,0.018-9.237,4.468-13.688c9.934-9.934,28.064-7.638,35.743,4.527
		c3.819,6.05,4.471,14.652,1.564,20.656c-3.122,6.449-13.131,13.124-26.208,17.478c-12.881,4.288-33.738,9.071-44.499,10.205
		C138.708,544.019,137.135,544.012,131.799,543.233L131.799,543.233z M86.079,502.709c-10.703-2.191-18.951-9.471-22.058-19.469
		c-2.699-8.685-1.235-16.866,4.053-22.652c4.555-4.983,8.38-6.522,16.232-6.529c7.107-0.007,9.692,0.992,14.831,5.729
		c5.297,4.882,7.128,11.104,3.892,13.225c-1.161,0.761-1.967,0.854-3.229,0.374c-2.58-0.981-3.323-2.894-2.068-5.32
		c1.316-2.547,0.821-3.195-4.44-5.825c-3.015-1.506-4.838-1.977-7.618-1.966c-13.572,0.054-18.711,14.406-9.314,26.012
		c8.319,10.272,26.405,10.359,41.729,0.198c9.866-6.541,18.362-16.017,35.531-39.628c6.867-9.444,18.507-21.589,24.339-25.397
		c5.282-3.448,10.496-5.934,16.192-7.719c4.215-1.321,6.19-1.53,14.058-1.49c8.332,0.043,9.562,0.206,13.694,1.816
		c11.029,4.298,17.688,13.308,18.508,25.041c0.499,7.149-1.038,11.313-6.013,16.277c-4.629,4.621-8.49,6.181-15.313,6.187
		c-5.669,0.004-9.986-1.592-13.959-5.161c-3.688-3.313-5.744-6.921-5.744-10.08c0-3.946,3.853-5.756,6.538-3.07
		c1.593,1.594,1.663,3.101,0.22,4.696c-1.022,1.129-0.992,1.308,0.49,2.916c3.569,3.876,11.826,5.409,17.149,3.185
		c5.15-2.152,8.729-8.662,7.873-14.323c-1.765-11.678-13.007-19.648-26.009-18.44c-16.909,1.571-30.2,11.5-47.149,35.221
		c-17.045,23.854-20.245,27.642-29.4,34.804c-5.946,4.652-12.3,8.053-18.961,10.148C104.896,503.114,91.448,503.808,86.079,502.709
		L86.079,502.709z M203.245,475.678c-5.217-4.945-11.948-7.016-18.447-5.673c-2.198,0.454-4.804,1.242-5.789,1.752
		c-3.583,1.853-9.422,0.628-10.992-2.306c-1.32-2.468-0.808-6.968,1.044-9.169c3.133-3.724,6.353-4.932,12.994-4.876
		c7.345,0.061,11.949,1.713,16.711,5.994c5.095,4.581,9.13,12.072,8.155,15.143C206.341,478.369,205.998,478.288,203.245,475.678
		L203.245,475.678z M115.623,454.613c-6.027-8.159-12.11-23.349-13.697-34.201c-0.955-6.528-0.474-17.027,1.035-22.592
		c3.262-12.025,11.488-22.202,22.21-27.478c15.102-7.431,32.308-5.065,43.328,5.955c11.602,11.602,12.25,29.124,1.573,42.566
		c-5.343,6.728-15.615,10.477-24.286,8.864c-5.203-0.968-10.306-3.337-13.602-6.314c-10.304-9.309-7.647-29.323,4.692-35.36
		c14.636-7.161,29.188,4.187,24.188,18.86c-1.732,5.083-6.056,7.499-11.132,6.221c-5.073-1.277-7.375-5.91-5.207-10.479
		c1.076-2.268,3.974-4.471,5.883-4.471c1.601,0,1.24-1.712-0.68-3.222c-4.551-3.579-12.409,0.108-14.641,6.871
		c-1.208,3.658-0.536,9.508,1.433,12.483c5.501,8.312,19.539,8.521,26.689,0.397c3.566-4.052,4.812-8.186,4.463-14.809
		c-0.492-9.318-5.113-16.304-13.333-20.149c-12.095-5.66-24.838-3.217-34.946,6.7c-5.115,5.02-7.858,10.193-9.408,17.748
		c-2.83,13.796,0.939,34.758,9.172,51.004c1.903,3.757,1.977,5.091,0.276,5.091C118.828,458.3,117.329,456.921,115.623,454.613
		L115.623,454.613z M88.556,445.272c-6.883-1.698-12.233-8.097-14.378-17.191c-2.436-10.328,0.28-20.917,7.221-28.16
		c5.074-5.295,7.681-4.878,5.728,0.917c-0.809,2.4-1.165,5.29-1.121,9.078c0.085,7.244,1.525,10.369,7.813,16.95
		c5.926,6.202,7.151,9.414,5.141,13.465C96.898,444.485,92.956,446.357,88.556,445.272L88.556,445.272z"/>
	<path id="path3022" d="M465.76,401.009c0-0.706,1.125-8.14,2.5-16.519c1.375-8.378,2.5-15.9,2.5-16.715
		c0-2.37-1.711-1.757-7.195,2.578c-7.238,5.722-10.459,7.171-15.938,7.171c-6.233,0-10.58-2.597-14.229-8.499
		c-2.392-3.868-2.888-5.764-2.888-11.033c0-9.853,3.899-15.698,10.47-15.698c7.409,0,11.564,8.58,7.184,14.834
		c-3.331,4.757-9.794,1.021-7.841-4.531c1.097-3.116,3.725-3.768,4.247-1.053c0.206,1.067-0.275,1.75-1.236,1.75
		c-2.011,0-2.059,2.876-0.061,3.643c4.242,1.628,6.234-6.896,2.487-10.643c-2.444-2.445-4.32-2.515-8.067-0.302
		c-5.042,2.979-6.42,11.468-3.052,18.802c2.454,5.344,5.148,7.56,9.981,8.208c10.835,1.453,15.82-3.836,23.18-24.592l3.327-9.384
		l-2.824-17.394c-2.387-14.697-2.769-20.329-1.237-18.256c0.453,0.613,18.846,22.21,20.112,23.615
		c0.809,0.897,3.844-2.03,12.08-11.654c9.229-10.782,11.05-12.479,11.308-10.535c0.17,1.275-0.843,8.901-2.25,16.947
		c-1.406,8.045-2.558,15.509-2.558,16.586c0,2.319,2.241,2.577,3.998,0.46c0.684-0.824,3.94-3.299,7.236-5.5
		c5.185-3.462,6.738-4.002,11.512-4.002c3.849,0,6.539,0.631,8.895,2.087c12.827,7.927,11.017,31.913-2.408,31.913
		c-6.712,0-10.643-8.113-6.676-13.777c3.949-5.64,11.196-0.122,7.504,5.713c-0.753,1.189-1.178,1.212-2.484,0.127
		c-1.99-1.651-2.025-3.063-0.076-3.063c0.825,0,1.5-0.676,1.5-1.5c0-1.795-3.111-1.989-4.8-0.301
		c-2.991,2.991,0.609,10.801,4.979,10.801c2.632,0,6.617-3.854,7.851-7.591c3.092-9.369-3.167-20.107-12.321-21.139
		c-9.268-1.045-13.698,4.182-21.313,25.141l-3.601,9.912l2.617,16.588c1.439,9.124,2.61,16.926,2.603,17.339
		c-0.045,2.186-2.747-0.333-11.537-10.75c-5.337-6.325-10.282-11.5-10.989-11.5c-0.708,0-5.624,5.175-10.925,11.5
		C468.119,401.779,465.76,403.862,465.76,401.009L465.76,401.009z"/>
	<path id="path3020" d="M483.386,292.784c-5.915-5.285-3.186-13.156,4.562-13.156c5.471,0,7.785,4.865,3.34,7.02
		c-2.184,1.059-2.192,1.044-0.272-0.491c2.498-1.999,1.037-4.882-2.703-5.333c-5.693-0.687-7.932,6.963-3.14,10.731
		c4.983,3.92,13.647,2.322,18.581-3.427c2.386-2.78,2.292-10.154-0.181-14.21c-2.066-3.39-5.996-5.729-17.497-10.415
		c-8.691-3.542-10.84-3.591-13.001-0.293c-3.278,5.004-8.943,10.584-12.68,12.49c-7.181,3.663-20.932,1.396-23.777-3.922
		c-2.015-3.765-1.31-9.034,1.565-11.698c4.466-4.139,14.354-2.778,14.354,1.974c0,3.326-1.982,5.578-4.785,5.438
		c-2.361-0.118-2.422-0.192-0.463-0.569c3.565-0.687,4.706-3.836,2.271-6.271c-4.281-4.281-11.022-1.068-11.022,5.255
		c0,4.681,2.267,7.301,7.448,8.605c7.844,1.975,15.683-0.89,19.67-7.188c1.736-2.744,1.945-4.299,1.479-11.004
		c-0.851-12.221-1.424-12.912-11.842-14.293c-15.674-2.077-23.028-7.407-23.028-16.691c0-10.199,14.246-16.236,22.672-9.608
		c4.78,3.761,2.65,10.947-3.221,10.862c-2.647-0.039-2.641-0.056,0.572-1.452c4.142-1.801,4.408-5.453,0.614-8.437
		c-3.079-2.422-6.132-2.614-10.767-0.679c-4.3,1.798-6.598,5.143-6.598,9.606c0,4.551,2.101,7.501,7.193,10.099
		c8.374,4.272,20.629,3.194,29.846-2.624c5.833-3.682,5.881-5.499,0.368-13.716c-5.926-8.833-6.486-14.015-2.212-20.477
		c6.313-9.545,23.882-9.549,27.063-0.01c2.608,7.823-9.328,14.359-13.649,7.475c-1.366-2.178,0.226-5.117,2.998-5.537
		c1.759-0.267,1.77-0.21,0.144,0.8c-2.664,1.653-2.195,4.837,0.823,5.595c4.267,1.071,7.427-1.019,7.427-4.912
		c0-5.109-3.54-7.899-9.958-7.85c-14.19,0.11-18.884,13.372-8.294,23.436c3.045,2.895,19.007,9.719,22.73,9.719
		c1.475,0,3.63-2.036,6.963-6.575c6.713-9.143,11.212-11.948,18.985-11.841c4.059,0.056,7.417,0.775,10.126,2.169
		c10.284,5.293,7.808,18.247-3.489,18.247c-2.565,0-5.204-0.54-5.864-1.2c-1.396-1.396-1.63-6.8-0.293-6.8
		c0.498,0,0.688,0.832,0.422,1.851c-1.29,4.934,6.989,6.922,11.217,2.694c8.027-8.027-5.862-18.288-17.827-13.168
		c-6.661,2.85-11.622,11.716-10.328,18.456c0.281,1.467,1.016,5.254,1.632,8.417l1.12,5.75h9.364
		c10.427,0,13.671,0.875,17.833,4.813c3.811,3.605,5.661,7.374,5.661,11.53c0,10.838-19.037,14.862-21.518,4.55
		c-0.625-2.594,1.425-5.894,3.66-5.894c0.55,0,0.293,0.707-0.571,1.571c-3.737,3.737-0.112,8.429,6.515,8.429
		c7.671,0,11.729-9.15,6.825-15.386c-3.189-4.055-7.12-5.614-14.149-5.614c-5.836,0-7.084,0.427-15.766,5.396
		c-5.186,2.969-9.599,5.91-9.808,6.538c-0.21,0.627,1.248,3.505,3.238,6.396c5.698,8.272,6.356,12.174,3.369,19.958
		c-1.653,4.307-8.328,7.712-15.118,7.712c-4.792,0-6.128-0.431-8.829-2.844V292.784z"/>
	<path id="path2941" d="M648.903,188.561c0.094-6.837-0.939-11.967-2.056-10.206c-1.008,1.589-1.16,14.922-0.199,17.426
		c0.626,1.632,0.729,1.62,1.43-0.168C648.493,194.553,648.864,191.379,648.903,188.561z M637.973,187.126
		c0-5.532-0.391-9.817-0.868-9.522c-1.333,0.824-2.305,10.245-1.565,15.177C636.696,200.495,637.973,197.529,637.973,187.126z
		 M643.172,209.336c0.146-6.951-0.431-9.252-1.94-7.742c-0.894,0.894-0.661,13.131,0.278,14.65
		C642.667,218.118,643.017,216.662,643.172,209.336L643.172,209.336z M643.16,276.936c0.448-4.647-0.252-11.75-1.157-11.75
		c-1.022,0-1.861,7.786-1.271,11.806C641.339,281.131,642.758,281.099,643.16,276.936L643.16,276.936z M648.889,294.686
		c0.068-7.29-0.804-11.284-2.04-9.335c-1.009,1.592-1.163,14.923-0.201,17.43c0.626,1.632,0.729,1.62,1.43-0.168
		C648.493,301.553,648.858,297.986,648.889,294.686L648.889,294.686z M637.973,294.745c0-10.128-1.345-13.418-2.455-6.01
		c-0.781,5.211,0.259,15.451,1.57,15.451C637.575,304.186,637.973,299.937,637.973,294.745z M634.63,310.358
		c-0.91-1.005-2.162-4.357-2.783-7.45c-1.158-5.766-0.594-11.95,2.279-25c1.157-5.255,1.096-6.115-0.68-9.5
		c-1.073-2.047-4.685-6.492-8.025-9.878c-6.543-6.631-12.622-9.35-20.879-9.339c-16.359,0.022-26.954,12.95-20.962,25.578
		c2.507,5.282,6.872,7.417,15.173,7.417c6.613,0,7.198-0.186,9.592-3.03c6.607-7.853,2.824-17.171-6.418-15.803
		c-5.367,0.794-4.948,7.637,0.432,7.045c2.031-0.224,2.615,0.151,2.615,1.679c0,4.076-5.441,6.412-10.455,4.488
		c-2.53-0.972-4.758-6.136-4.045-9.379c2.162-9.844,17.332-11.797,23.303-3c1.938,2.855,2.291,4.408,1.915,8.438
		c-0.38,4.078-1.078,5.504-4.009,8.189c-12.05,11.043-32.928,3.564-34.456-12.342c-1.354-14.087,14.93-25.545,32.12-22.601
		c9.201,1.576,15.01,4.836,21.773,12.217c3.23,3.525,6.207,6.078,6.613,5.671c0.407-0.406,0.74-10.789,0.74-23.073
		c0-12.283-0.333-22.666-0.74-23.072c-0.406-0.406-3.461,2.231-6.788,5.862c-8.675,9.467-14.671,12.224-26.472,12.169
		c-7.751-0.035-9.8-0.428-14.757-2.825c-23.118-11.183-11.707-41.888,13.556-36.478c7.546,1.616,12.701,6.925,12.701,13.079
		c0,15.109-22.351,19.104-25.544,4.566c-1.337-6.087,6.005-11.731,11.361-8.734c3.291,1.841,4.443,6.496,1.412,5.703
		c-4.117-1.076-6.929,3.131-4.03,6.03c0.66,0.66,2.878,1.2,4.928,1.2c2.836,0,4.224-0.631,5.8-2.636
		c2.591-3.293,2.605-5.401,0.069-10.371c-2.573-5.044-4.484-5.993-12.063-5.993c-10.343,0-15.934,5.321-15.934,15.166
		c0,9.82,7.794,16.729,19.847,17.591c12.358,0.884,21.611-4.004,29.486-15.575c4.291-6.305,4.306-6.562,1.17-21.182
		c-2.098-9.779-1.564-17.727,1.531-22.816c1.847-3.037,2.228-3.184,8.235-3.184c6.004,0,6.386,0.146,8.158,3.147
		c2.992,5.065,3.205,15.021,0.57,26.644l-2.259,9.96l2.838,5.214c4.114,7.559,12.273,14.645,19.174,16.65
		c11.649,3.387,24.857-0.357,29.54-8.375c3.938-6.743,1.564-17.313-4.766-21.225c-4.68-2.893-14.245-2.812-18.012,0.152
		c-8.053,6.333-6.124,16.832,3.091,16.832c4.614,0,6.535-1.75,5.647-5.143c-0.507-1.94-1.223-2.206-5.083-1.887
		c-1.901,0.157-2.27-0.229-2-2.105c0.437-3.037,4.682-5.371,8.176-4.494c11.532,2.895,6.595,18.629-5.845,18.629
		c-7.611,0-13.49-6.057-13.497-13.905c-0.003-3.829,0.512-4.895,3.938-8.154c9.748-9.273,27.313-6.31,33.068,5.579
		c1.827,3.775,2.144,5.701,1.678,10.212c-0.741,7.188-4.298,11.772-12.231,15.769c-5.323,2.681-6.913,2.996-14.956,2.969
		c-7.913-0.026-9.704-0.383-14.828-2.95c-5.476-2.743-16.672-13.243-16.672-15.635c0-0.552-0.45-0.724-1-0.384
		c-1.199,0.74-1.4,47.135-0.208,47.871c0.437,0.27,2.696-1.97,5.023-4.978c7.515-9.712,19.261-15.193,30.125-14.058
		c15.65,1.636,24.977,9.627,25.037,21.453c0.087,16.988-22.831,25.593-35.205,13.219c-3.217-3.217-3.772-4.419-3.772-8.158
		c0-5.977,3.708-11.397,8.755-12.799c4.626-1.285,4.865-1.284,9.547,0.016c7.035,1.954,10.004,10.718,5.243,15.479
		c-4.112,4.113-12.545,2.291-12.545-2.71c0-1.631,0.463-1.936,2.258-1.485c2.602,0.652,4.12-0.125,5.022-2.571
		c0.868-2.356-1.804-4.778-5.271-4.778c-4.238,0-5.92,0.924-7.604,4.182c-1.835,3.55-0.668,8.164,3.092,12.221
		c2.175,2.347,3.124,2.598,9.82,2.598c6.003,0,7.917-0.397,10.067-2.089c6.306-4.96,7.82-14.981,3.296-21.816
		c-5.073-7.668-17.735-10.966-29.249-7.618c-4.804,1.396-6.912,2.793-11.886,7.871c-3.325,3.396-6.899,8.076-7.943,10.401
		c-1.884,4.2-1.882,4.292,0.387,13.708c2.596,10.774,2.456,20.847-0.364,26.301c-1.622,3.137-1.881,3.242-7.996,3.242
		C637.752,312.186,635.898,311.761,634.63,310.358L634.63,310.358z"/>
</g>
</svg>
