<?xml version="1.0" encoding="utf-8"?>
<!-- Generator: Adobe Illustrator 16.0.0, SVG Export Plug-In . SVG Version: 6.00 Build 0)  -->
<!DOCTYPE svg PUBLIC "-//W3C//DTD SVG 1.1//EN" "http://www.w3.org/Graphics/SVG/1.1/DTD/svg11.dtd">
<svg version="1.1" id="Layer_1" xmlns="http://www.w3.org/2000/svg" xmlns:xlink="http://www.w3.org/1999/xlink" x="0px" y="0px"
	 width="90px" height="90px" viewBox="0 0 90 90" enable-background="new 0 0 90 90" xml:space="preserve">
<line fill="none" stroke="#000000" stroke-width="4" stroke-miterlimit="10" x1="17.488" y1="80.486" x2="17.488" y2="59.539"/>
<line fill="none" stroke="#000000" stroke-width="4" stroke-miterlimit="10" x1="17.488" y1="59.539" x2="38.799" y2="34.041"/>
<line fill="none" stroke="#000000" stroke-width="4" stroke-miterlimit="10" x1="38.799" y1="34.041" x2="28.963" y2="19.105"/>
<line fill="none" stroke="#000000" stroke-width="4" stroke-miterlimit="10" x1="28.963" y1="19.105" x2="34.792" y2="13.276"/>
<line fill="none" stroke="#000000" stroke-width="4" stroke-miterlimit="10" x1="17.488" y1="80.486" x2="44.082" y2="80.486"/>
<line fill="none" stroke="#000000" stroke-width="4" stroke-miterlimit="10" x1="34.792" y1="13.276" x2="44.082" y2="20.744"/>
<line fill="none" stroke="#000000" stroke-width="4" stroke-miterlimit="10" x1="31.877" y1="13.276" x2="31.877" y2="5.262"/>
<line fill="none" stroke="#000000" stroke-width="4" stroke-miterlimit="10" x1="69.949" y1="80.486" x2="69.949" y2="59.539"/>
<line fill="none" stroke="#000000" stroke-width="4" stroke-miterlimit="10" x1="69.949" y1="59.539" x2="48.637" y2="34.041"/>
<line fill="none" stroke="#000000" stroke-width="4" stroke-miterlimit="10" x1="48.637" y1="34.041" x2="58.475" y2="19.105"/>
<line fill="none" stroke="#000000" stroke-width="4" stroke-miterlimit="10" x1="58.475" y1="19.105" x2="52.645" y2="13.276"/>
<line fill="none" stroke="#000000" stroke-width="4" stroke-miterlimit="10" x1="69.949" y1="80.486" x2="43.356" y2="80.486"/>
<line fill="none" stroke="#000000" stroke-width="4" stroke-miterlimit="10" x1="52.645" y1="13.276" x2="43.356" y2="20.744"/>
<line fill="none" stroke="#000000" stroke-width="4" stroke-miterlimit="10" x1="55.559" y1="13.276" x2="55.559" y2="5.262"/>
</svg>
