<?xml version="1.0" encoding="utf-8"?>
<!-- Generator: Adobe Illustrator 16.0.0, SVG Export Plug-In . SVG Version: 6.00 Build 0)  -->
<!DOCTYPE svg PUBLIC "-//W3C//DTD SVG 1.1//EN" "http://www.w3.org/Graphics/SVG/1.1/DTD/svg11.dtd">
<svg version="1.1" id="svg2385" xmlns:svg="http://www.w3.org/2000/svg"
	 xmlns="http://www.w3.org/2000/svg" xmlns:xlink="http://www.w3.org/1999/xlink" x="0px" y="0px" width="473px" height="426px"
	 viewBox="-6.573 -5.149 473 426" enable-background="new -6.573 -5.149 473 426" xml:space="preserve">
<g id="layer1" transform="translate(-163.064, -372.399)">
	<path id="path2395" stroke="#000000" stroke-width="13" stroke-miterlimit="10" d="M368.899,527.341
		c-9.442-62.952-61.537-87.745-82.467-96.946c-18.603-8.178-22.663-23.292-22.663-23.292s-5.036,16.997-5.036,25.181
		s-1.889,46.585,13.22,78.69c15.109,32.105,61.063,43.437,74.284,59.175c13.22,15.738,8.184,43.437,8.184,43.437
		s-0.63-22.033-15.738-35.253s-52.25-13.22-73.024-50.991s-22.539-108.232-4.406-134.718c8.891-12.985,0.691,6.858,14.479,19.516
		c12.793,11.744,51.521,23.398,74.284,46.585C375.97,485.163,369.529,528.6,368.899,527.341z"/>
	<path id="path2391" stroke="#000000" stroke-width="13" stroke-miterlimit="10" d="M427.474,533.101
		c49.797-39.653,45.221-97.166,42.725-119.892c-2.219-20.199,8.84-31.272,8.84-31.272s-17.238,4.137-24.325,8.229
		s-41.287,21.657-61.537,50.794c-20.25,29.138-7.086,74.602-14.105,93.919c-7.02,19.318-33.525,28.806-33.525,28.806
		s18.767-11.562,22.661-31.256s-14.677-51.86,7.647-88.736c22.323-36.877,82.462-73.636,114.465-71.176
		c15.691,1.207-5.594,4.029-9.661,22.297c-3.774,16.951,5.497,56.318-3.201,87.624C467.537,518.136,426.699,534.276,427.474,533.101
		z"/>
	<path id="path2393" stroke="#000000" stroke-width="13" stroke-miterlimit="10" d="M452.596,584.823
		c59.239,23.299,106.759-9.421,125.191-22.945c16.384-12.021,31.503-7.98,31.503-7.98s-12.201-12.86-19.289-16.952
		c-7.087-4.092-39.399-24.928-74.758-27.896c-35.358-2.969-68.148,31.164-88.389,34.743c-20.239,3.58-41.709-14.631-41.709-14.631
		s19.396,10.472,38.399,3.997s37.573-38.64,80.672-37.745c43.098,0.895,105.001,34.596,118.872,63.542
		c6.801,14.193-6.286-2.829-24.141,2.782c-16.567,5.206-46.023,32.919-77.485,41.039
		C485.588,612.035,451.191,584.739,452.596,584.823z"/>
	<path id="path2396" stroke="#000000" stroke-width="13" stroke-miterlimit="10" d="M416.875,630.917
		c9.443,62.952,61.538,87.745,82.468,96.946c18.603,8.179,22.662,23.292,22.662,23.292s5.036-16.997,5.036-25.181
		s1.889-46.584-13.22-78.689c-15.108-32.106-61.063-43.438-74.283-59.176c-13.22-15.737-8.184-43.437-8.184-43.437
		s0.63,22.033,15.738,35.253s52.25,13.22,73.024,50.991c20.773,37.771,22.539,108.232,4.406,134.718
		c-8.891,12.986-0.692-6.858-14.479-19.516c-12.792-11.744-51.521-23.397-74.283-46.584
		C409.804,673.095,416.246,629.659,416.875,630.917z"/>
	<path id="path2398" stroke="#000000" stroke-width="13" stroke-miterlimit="10" d="M359.84,624.4
		c-49.797,39.654-45.221,97.166-42.724,119.893c2.218,20.199-8.841,31.272-8.841,31.272s17.238-4.137,24.325-8.229
		c7.088-4.093,41.288-21.657,61.538-50.794c20.25-29.138,7.086-74.602,14.105-93.919c7.02-19.318,33.525-28.807,33.525-28.807
		s-18.767,11.563-22.661,31.257s14.676,51.859-7.647,88.736c-22.324,36.877-82.462,73.636-114.466,71.175
		c-15.691-1.206,5.594-4.028,9.661-22.297c3.774-16.95-5.497-56.317,3.202-87.623C319.777,639.366,360.615,623.226,359.84,624.4z"/>
	<path id="path2400" stroke="#000000" stroke-width="13" stroke-miterlimit="10" d="M335.385,573.35
		c-59.239-23.299-106.758,9.421-125.191,22.945c-16.384,12.021-31.503,7.98-31.503,7.98s12.202,12.86,19.289,16.952
		c7.088,4.092,39.399,24.928,74.758,27.896c35.358,2.968,68.149-31.165,88.389-34.744c20.239-3.58,41.71,14.631,41.71,14.631
		s-19.396-10.472-38.399-3.997s-37.574,38.641-80.672,37.745c-43.099-0.895-105.002-34.596-118.872-63.542
		c-6.802-14.192,6.285,2.829,24.14-2.782c16.567-5.206,46.024-32.919,77.485-41.039C302.393,546.137,336.79,573.434,335.385,573.35z
		"/>
</g>
</svg>
