<?xml version="1.0" encoding="utf-8"?>
<!-- Generator: Adobe Illustrator 16.0.0, SVG Export Plug-In . SVG Version: 6.00 Build 0)  -->
<!DOCTYPE svg PUBLIC "-//W3C//DTD SVG 1.1//EN" "http://www.w3.org/Graphics/SVG/1.1/DTD/svg11.dtd">
<svg version="1.1" id="Layer_1" xmlns="http://www.w3.org/2000/svg" xmlns:xlink="http://www.w3.org/1999/xlink" x="0px" y="0px"
	 width="299px" height="298px" viewBox="-5.304 -5.304 299 298" enable-background="new -5.304 -5.304 299 298"
	 xml:space="preserve">
<line fill="none" stroke="#000000" stroke-width="13" stroke-miterlimit="10" x1="288.39" y1="284.39" x2="0" y2="284.39"/>
<line fill="none" stroke="#000000" stroke-width="13" stroke-miterlimit="10" x1="284.39" y1="0" x2="284.39" y2="288.39"/>
<line fill="none" stroke="#000000" stroke-width="13" stroke-miterlimit="10" x1="0" y1="5" x2="288.39" y2="5"/>
<line fill="none" stroke="#000000" stroke-width="13" stroke-miterlimit="10" x1="5" y1="0" x2="5" y2="288.39"/>
<line fill="none" stroke="#000000" stroke-width="13" stroke-miterlimit="10" x1="97.696" y1="37.615" x2="188.696" y2="37.615"/>
<line fill="none" stroke="#000000" stroke-width="13" stroke-miterlimit="10" x1="183.555" y1="108.836" x2="258.696" y2="108.836"/>
<line fill="none" stroke="#000000" stroke-width="13" stroke-miterlimit="10" x1="176.696" y1="187.863" x2="259.696" y2="187.863"/>
<line fill="none" stroke="#000000" stroke-width="13" stroke-miterlimit="10" x1="97.696" y1="257.085" x2="188.849" y2="257.085"/>
<line fill="none" stroke="#000000" stroke-width="13" stroke-miterlimit="10" x1="252.779" y1="187.863" x2="252.779" y2="108.836"/>
<line fill="none" stroke="#000000" stroke-width="13" stroke-miterlimit="10" x1="29.696" y1="108.836" x2="110.696" y2="108.836"/>
<line fill="none" stroke="#000000" stroke-width="13" stroke-miterlimit="10" x1="35.305" y1="189.863" x2="35.305" y2="102.696"/>
<line fill="none" stroke="#000000" stroke-width="13" stroke-miterlimit="10" x1="29.696" y1="187.863" x2="104.529" y2="187.863"/>
<line fill="none" stroke="#000000" stroke-width="13" stroke-miterlimit="10" x1="104.529" y1="106.838" x2="104.529" y2="37.615"/>
<line fill="none" stroke="#000000" stroke-width="13" stroke-miterlimit="10" x1="183.555" y1="113.696" x2="183.555" y2="37.615"/>
<line fill="none" stroke="#000000" stroke-width="13" stroke-miterlimit="10" x1="183.555" y1="257.085" x2="183.555" y2="187.863"/>
<line fill="none" stroke="#000000" stroke-width="13" stroke-miterlimit="10" x1="104.529" y1="257.085" x2="104.529" y2="181.696"/>
</svg>
