<?xml version="1.0" encoding="utf-8"?>
<!-- Generator: Adobe Illustrator 16.0.0, SVG Export Plug-In . SVG Version: 6.00 Build 0)  -->
<!DOCTYPE svg PUBLIC "-//W3C//DTD SVG 1.1//EN" "http://www.w3.org/Graphics/SVG/1.1/DTD/svg11.dtd">
<svg version="1.1" id="Layer_1" xmlns="http://www.w3.org/2000/svg" xmlns:xlink="http://www.w3.org/1999/xlink" x="0px" y="0px"
	 width="90px" height="90px" viewBox="0 0 90 90" enable-background="new 0 0 90 90" xml:space="preserve">
<g>
	<g>
		<path d="M-28.389-0.352c3.224,0,3.224-5,0-5C-31.613-5.352-31.613-0.352-28.389-0.352L-28.389-0.352z"/>
	</g>
</g>
<g>
	<g>
		<path d="M-28.389-0.352c3.224,0,3.224-5,0-5C-31.613-5.352-31.613-0.352-28.389-0.352L-28.389-0.352z"/>
	</g>
</g>
<line fill="none" stroke="#000000" stroke-width="4" stroke-miterlimit="10" x1="4.4" y1="36.039" x2="44.609" y2="76.247"/>
<line fill="none" stroke="#000000" stroke-width="4" stroke-miterlimit="10" x1="44.609" y1="76.247" x2="27.555" y2="36.039"/>
<line fill="none" stroke="#000000" stroke-width="4" stroke-miterlimit="10" x1="27.555" y1="36.039" x2="4.4" y2="36.039"/>
<line fill="none" stroke="#000000" stroke-width="4" stroke-miterlimit="10" x1="27.555" y1="36.039" x2="15.977" y2="19.357"/>
<line fill="none" stroke="#000000" stroke-width="4" stroke-miterlimit="10" x1="15.977" y1="19.357" x2="4.4" y2="36.039"/>
<line fill="none" stroke="#000000" stroke-width="4" stroke-miterlimit="10" x1="27.555" y1="36.039" x2="44.609" y2="19.357"/>
<line fill="none" stroke="#000000" stroke-width="4" stroke-miterlimit="10" x1="15.977" y1="19.357" x2="44.609" y2="19.357"/>
<line fill="none" stroke="#000000" stroke-width="4" stroke-miterlimit="10" x1="84.816" y1="36.039" x2="44.609" y2="76.247"/>
<line fill="none" stroke="#000000" stroke-width="4" stroke-miterlimit="10" x1="44.609" y1="76.247" x2="61.663" y2="36.039"/>
<line fill="none" stroke="#000000" stroke-width="4" stroke-miterlimit="10" x1="61.663" y1="36.039" x2="84.816" y2="36.039"/>
<line fill="none" stroke="#000000" stroke-width="4" stroke-miterlimit="10" x1="61.663" y1="36.039" x2="73.24" y2="19.357"/>
<line fill="none" stroke="#000000" stroke-width="4" stroke-miterlimit="10" x1="73.24" y1="19.357" x2="84.816" y2="36.039"/>
<line fill="none" stroke="#000000" stroke-width="4" stroke-miterlimit="10" x1="61.663" y1="36.039" x2="44.609" y2="19.357"/>
<line fill="none" stroke="#000000" stroke-width="4" stroke-miterlimit="10" x1="73.24" y1="19.357" x2="44.609" y2="19.357"/>
<line fill="none" stroke="#000000" stroke-width="4" stroke-miterlimit="10" x1="27.555" y1="36.039" x2="61.663" y2="36.039"/>
</svg>
