<?xml version="1.0" encoding="utf-8"?>
<!-- Generator: Adobe Illustrator 16.0.0, SVG Export Plug-In . SVG Version: 6.00 Build 0)  -->
<!DOCTYPE svg PUBLIC "-//W3C//DTD SVG 1.1//EN" "http://www.w3.org/Graphics/SVG/1.1/DTD/svg11.dtd">
<svg version="1.1"
	 id="svg2" xmlns:dc="http://purl.org/dc/elements/1.1/" xmlns:cc="http://creativecommons.org/ns#" xmlns:rdf="http://www.w3.org/1999/02/22-rdf-syntax-ns#" xmlns:svg="http://www.w3.org/2000/svg" xmlns:sodipodi="http://sodipodi.sourceforge.net/DTD/sodipodi-0.dtd" xmlns:inkscape="http://www.inkscape.org/namespaces/inkscape" sodipodi:docname="LimoHummer.svg" inkscape:version="0.47 r22583"
	 xmlns="http://www.w3.org/2000/svg" xmlns:xlink="http://www.w3.org/1999/xlink" x="0px" y="0px" width="70px" height="69.687px"
	 viewBox="132.436 290.156 70 69.687" enable-background="new 132.436 290.156 70 69.687" xml:space="preserve">
<g id="layer1" transform="translate(0,27.638)" inkscape:label="Layer 1" inkscape:groupmode="layer">
	<path id="path6381" d="M190.151,208.801c-0.917-0.903-2.066-2.035-3.549-3.472c-6.891-6.714-12.167-11.534-13.747-12.557
		c-0.72-0.474-1.138-0.584-1.838-0.512l-0.9,0.092l-1.298-1.458c-2.824-3.186-4.499-3.344-8.009-0.776
		c-1.395,1.02-4.618,4.591-5.588,6.189c-1.329,2.19-1.811,2.417-6.797,3.125c-3.049,0.44-8.964,1.101-9.437,1.057
		c-0.085-0.007-1.664,0.099-3.5,0.237c-1.837,0.145-3.975,0.276-4.747,0.297c-0.772,0.023-3.113,0.143-5.2,0.265
		c-2.091,0.122-4.961,0.243-6.383,0.269c-8.447,0.169-12.479,1.069-23.082,5.14c-0.856,0.328-2.008,0.761-2.568,0.96
		c-1.266,0.458-3.043,1.373-10.518,5.414c-4.222,2.279-5.493,3.093-8.038,5.112c-2.746,2.185-4.976,4.498-6.498,6.759
		c-0.692,1.029-1.594,2.369-2.005,2.976c-1.551,2.297-3.112,5.4-3.996,7.947c-0.504,1.444-0.958,2.908-1.009,3.244
		c-0.056,0.333-0.485,2.071-0.956,3.863c-1.459,5.557-2.314,9.704-2.405,11.632c-0.279,6.33-0.109,14.068,0.378,16.908
		c0.638,3.799,2.963,11.282,4.855,15.646c3.074,7.069,7.599,14.173,12.306,19.33c5.54,6.064,12.292,10.99,19.616,14.314
		c13.446,4.996,29.295,7.63,43.239,5.305c19.08-3.339,32.954-15.354,40.446-35.041c2.645-6.943,4.571-15.793,5.062-23.237
		c0.089-1.364,0.26-3.058,0.381-3.756c0.318-1.878,0.417-2.637,0.415-3.275c0-0.313,0.09-1.491,0.206-2.625
		c0.217-2.171,0.333-4.962,0.337-8.009c0.01-3.792,0.036-4.459,0.272-6.582c0.478-4.195,0.662-5.351,1.257-8
		c0.88-3.928,0.709-3.697,5.188-6.638c0.57-0.376,2.021-1.688,3.225-2.915c2.094-2.137,2.197-2.281,2.487-3.349
		c0.167-0.611,0.281-1.444,0.251-1.848c-0.055-0.846-1.033-2.242-2.181-3.134c-0.726-0.571-0.762-0.654-0.788-1.869
		c-0.022-1.105-0.145-1.455-0.94-2.689C193.48,212.187,192.9,211.511,190.151,208.801L190.151,208.801z M150.285,209.643
		c0.083,0.051,0.075,0.147,0.034,0.338c-0.166,0.723-0.004,1.757,0.625,3.942c0.342,1.177,0.569,2.252,0.511,2.397
		c-0.172,0.419-0.784,0.344-1.688-0.198c-1.932-1.165-5.397-2.163-9.719-2.8c-2.515-0.373-3.112-0.657-3.287-1.564
		c-0.087-0.458-0.008-0.489,1.564-0.654c0.912-0.096,2.571-0.363,3.682-0.59c1.739-0.358,5.173-0.76,7.677-0.899
		C150.017,209.597,150.197,209.596,150.285,209.643z M176.432,235.388c0.008,0.012,0.02,0.027,0.026,0.036
		c0.176,0.364-0.136,2.734-0.543,4.111c-0.161,0.542-0.321,1.333-0.366,1.761c-0.043,0.425-0.301,1.505-0.575,2.402
		c-0.272,0.89-0.648,2.657-0.833,3.909c-0.185,1.257-0.387,2.234-0.449,2.168c-0.056-0.067-0.294-0.977-0.517-2.027
		c-0.226-1.051-0.611-2.439-0.86-3.084c-0.777-2.036-1.497-4.307-1.77-5.575c-0.147-0.677-0.604-2.155-1.012-3.288l-0.739-2.06
		l2.001,0.515c1.101,0.284,2.788,0.595,3.754,0.69C175.549,235.047,176.272,235.215,176.432,235.388L176.432,235.388z
		 M157.467,228.81c0.283,0.275,0.536,0.555,0.855,0.917c1.217,1.379,2.611,3.438,3.374,4.977c0.22,0.447,1.129,2.686,2.022,4.976
		c0.888,2.291,1.692,4.237,1.779,4.324c0.149,0.146,1.168,2.316,2.083,4.437c0.196,0.45,0.567,1.574,0.831,2.5
		c0.263,0.925,0.668,2.155,0.907,2.735c0.521,1.268,2.557,9.591,2.84,11.612c0.113,0.792,0.313,2.149,0.438,3.024
		c0.308,2.087,0.417,3.723,0.329,4.941c-0.038,0.543-0.135,1.921-0.213,3.056c-0.076,1.138-0.2,2.796-0.271,3.686
		c-0.225,2.706-1.381,5.645-3.616,9.176c-2.352,3.732-3.684,5.307-9.22,10.914c-6.243,6.324-9.978,9.486-12.929,10.957
		c-9.544,4.762-21.12,7.05-31.045,6.136c-2.879-0.263-2.781-0.25-6.3-1.001c-7.445-1.582-14.881-5.415-21.473-11.056
		c-2.508-2.151-2.92-2.552-5.614-5.534c-5.171-5.721-8.818-11.606-11.324-18.268c-3.571-9.481-4.279-18.969-2.198-29.313
		c0.749-3.716,1.685-6.54,3.955-11.906c1.475-3.489,8.584-12.138,13.621-16.585c3.608-3.185,5.003-4.158,8.199-5.677
		c2.642-1.257,3.574-1.658,5.816-2.462c1.131-0.403,6.049-1.633,7.358-1.833c2.195-0.34,6.912-0.834,7.014-0.733
		c0.061,0.058,0.97,0.173,2.019,0.258c5.129,0.407,11.905,1.876,17.417,3.773c1.243,0.429,3.107,1.01,4.144,1.294
		c3.135,0.849,9.743,4.033,13.168,6.346C155.462,227.199,156.611,227.979,157.467,228.81L157.467,228.81z"/>
</g>
</svg>
