<?xml version="1.0" encoding="utf-8"?>
<!-- Generator: Adobe Illustrator 16.0.0, SVG Export Plug-In . SVG Version: 6.00 Build 0)  -->
<!DOCTYPE svg PUBLIC "-//W3C//DTD SVG 1.1//EN" "http://www.w3.org/Graphics/SVG/1.1/DTD/svg11.dtd">
<svg version="1.1" id="Layer_1" xmlns="http://www.w3.org/2000/svg" xmlns:xlink="http://www.w3.org/1999/xlink" x="0px" y="0px"
	 width="90px" height="90px" viewBox="0 0 90 90" enable-background="new 0 0 90 90" xml:space="preserve">
<line fill="none" stroke="#000000" stroke-width="4" stroke-miterlimit="10" x1="15.645" y1="37.063" x2="47.01" y2="61.066"/>
<line fill="none" stroke="#000000" stroke-width="4" stroke-miterlimit="10" x1="15.645" y1="37.063" x2="15.645" y2="78.021"/>
<line fill="none" stroke="#000000" stroke-width="4" stroke-miterlimit="10" x1="15.645" y1="78.021" x2="47.01" y2="78.021"/>
<line fill="none" stroke="#000000" stroke-width="4" stroke-miterlimit="10" x1="18.693" y1="37.063" x2="18.693" y2="22.966"/>
<line fill="none" stroke="#000000" stroke-width="4" stroke-miterlimit="10" x1="18.693" y1="22.966" x2="47.01" y2="22.966"/>
<line fill="none" stroke="#000000" stroke-width="4" stroke-miterlimit="10" x1="24.027" y1="69.258" x2="34.124" y2="58.971"/>
<line fill="none" stroke="#000000" stroke-width="4" stroke-miterlimit="10" x1="29.076" y1="22.966" x2="45.936" y2="10.203"/>
<line fill="none" stroke="#000000" stroke-width="4" stroke-miterlimit="10" x1="45.936" y1="50.207" x2="34.124" y2="40.302"/>
<line fill="none" stroke="#000000" stroke-width="4" stroke-miterlimit="10" x1="34.124" y1="40.302" x2="34.124" y2="33.825"/>
<line fill="none" stroke="#000000" stroke-width="4" stroke-miterlimit="10" x1="34.124" y1="33.825" x2="40.029" y2="30.015"/>
<line fill="none" stroke="#000000" stroke-width="4" stroke-miterlimit="10" x1="40.029" y1="30.015" x2="45.936" y2="34.968"/>
<line fill="none" stroke="#000000" stroke-width="4" stroke-miterlimit="10" x1="76.377" y1="37.063" x2="45.012" y2="61.066"/>
<line fill="none" stroke="#000000" stroke-width="4" stroke-miterlimit="10" x1="76.377" y1="37.063" x2="76.377" y2="78.021"/>
<line fill="none" stroke="#000000" stroke-width="4" stroke-miterlimit="10" x1="76.377" y1="78.021" x2="45.012" y2="78.021"/>
<line fill="none" stroke="#000000" stroke-width="4" stroke-miterlimit="10" x1="73.327" y1="37.063" x2="73.327" y2="22.965"/>
<line fill="none" stroke="#000000" stroke-width="4" stroke-miterlimit="10" x1="73.327" y1="22.965" x2="45.012" y2="22.965"/>
<line fill="none" stroke="#000000" stroke-width="4" stroke-miterlimit="10" x1="67.993" y1="69.257" x2="57.896" y2="58.971"/>
<line fill="none" stroke="#000000" stroke-width="4" stroke-miterlimit="10" x1="62.945" y1="22.965" x2="46.086" y2="10.202"/>
<line fill="none" stroke="#000000" stroke-width="4" stroke-miterlimit="10" x1="46.086" y1="50.207" x2="57.896" y2="40.301"/>
<line fill="none" stroke="#000000" stroke-width="4" stroke-miterlimit="10" x1="57.896" y1="40.301" x2="57.896" y2="33.824"/>
<line fill="none" stroke="#000000" stroke-width="4" stroke-miterlimit="10" x1="57.896" y1="33.824" x2="51.992" y2="30.014"/>
<line fill="none" stroke="#000000" stroke-width="4" stroke-miterlimit="10" x1="51.992" y1="30.014" x2="46.086" y2="34.967"/>
</svg>
