<?xml version="1.0" encoding="utf-8"?>
<!-- Generator: Adobe Illustrator 16.0.0, SVG Export Plug-In . SVG Version: 6.00 Build 0)  -->
<!DOCTYPE svg PUBLIC "-//W3C//DTD SVG 1.1//EN" "http://www.w3.org/Graphics/SVG/1.1/DTD/svg11.dtd">
<svg version="1.1"
	 id="svg3923" inkscape:version="0.48.0 r9654" sodipodi:docname="auto.svg" xmlns:cc="http://creativecommons.org/ns#" xmlns:dc="http://purl.org/dc/elements/1.1/" xmlns:inkscape="http://www.inkscape.org/namespaces/inkscape" xmlns:rdf="http://www.w3.org/1999/02/22-rdf-syntax-ns#" xmlns:sodipodi="http://sodipodi.sourceforge.net/DTD/sodipodi-0.dtd" xmlns:svg="http://www.w3.org/2000/svg"
	 xmlns="http://www.w3.org/2000/svg" xmlns:xlink="http://www.w3.org/1999/xlink" x="0px" y="0px" width="345px" height="191px"
	 viewBox="0 0 345 191" enable-background="new 0 0 345 191" xml:space="preserve">
<title  id="title4540">auto</title>
<sodipodi:namedview  fit-margin-bottom="0" fit-margin-right="0" inkscape:window-maximized="0" inkscape:document-units="px" inkscape:window-width="1156" inkscape:pageopacity="0.0" inkscape:window-height="788" inkscape:window-x="308" inkscape:pageshadow="2" inkscape:current-layer="layer1" inkscape:window-y="123" fit-margin-top="0" fit-margin-left="0" showgrid="false" pagecolor="#ffffff" inkscape:zoom="0.80664062" inkscape:cy="54.964765" inkscape:cx="137.40392" borderopacity="1.0" bordercolor="#666666" id="base">
	</sodipodi:namedview>
<path id="path4455_1_" inkscape:connector-curvature="0" sodipodi:nodetypes="ccccc" fill="none" stroke="#000000" stroke-width="13" stroke-linecap="round" stroke-linejoin="round" d="
	M326.691,147.201h-8.328l-1.753-20.162"/>
<path id="path4453_1_" inkscape:connector-curvature="0" sodipodi:nodetypes="ccccc" fill="none" stroke="#000000" stroke-width="13" stroke-linecap="round" stroke-linejoin="round" d="
	M1,147.64l12.711,0.438l0.877-21.478"/>
<path id="path4467_3_" inkscape:connector-curvature="0" sodipodi:nodetypes="cccccccc" fill="none" stroke="#000000" stroke-width="9" stroke-linecap="round" stroke-linejoin="round" d="
	M236.838,137.996"/>
<path id="path4467_8_" inkscape:connector-curvature="0" sodipodi:nodetypes="cccccccc" fill="none" stroke="#000000" stroke-width="9" stroke-linecap="round" stroke-linejoin="round" d="
	M236.838,137.996"/>
<path id="path4467_4_" inkscape:connector-curvature="0" sodipodi:nodetypes="cccccccc" fill="none" stroke="#000000" stroke-width="9" stroke-linecap="round" stroke-linejoin="round" d="
	M221.346,137.994"/>
<path id="path4467_7_" inkscape:connector-curvature="0" sodipodi:nodetypes="cccccccc" fill="none" stroke="#000000" stroke-width="9" stroke-linecap="round" stroke-linejoin="round" d="
	M221.346,137.994"/>
<path id="path4467_6_" inkscape:connector-curvature="0" sodipodi:nodetypes="cccccccc" fill="none" stroke="#000000" stroke-width="9" stroke-linecap="round" stroke-linejoin="round" d="
	M201.346,137.99"/>
<path id="path4467_2_" inkscape:connector-curvature="0" sodipodi:nodetypes="cccccccc" fill="none" stroke="#000000" stroke-width="9" stroke-linecap="round" stroke-linejoin="round" d="
	M189.346,137.986"/>
<path id="path4467_9_" inkscape:connector-curvature="0" sodipodi:nodetypes="cccccccc" fill="none" stroke="#000000" stroke-width="9" stroke-linecap="round" stroke-linejoin="round" d="
	M184.346,137.984"/>
<path id="path4467_5_" inkscape:connector-curvature="0" sodipodi:nodetypes="cccccccc" fill="none" stroke="#000000" stroke-width="9" stroke-linecap="round" stroke-linejoin="round" d="
	M180.077,0c-1.403,0.005,1.443,8.007,0,8.04l0.22,59.39v70.554l-0.619,10.349"/>
<path id="path4441" inkscape:connector-curvature="0" fill="none" stroke="#000000" stroke-width="13" stroke-linecap="round" stroke-linejoin="round" d="
	M86.012,138.136c1.213,20.416-22.046,38.549-41.77,30.386c-19.747-6.887-27.486-33.771-14.457-49.904
	c9.386-13.139,29.779-17.146,42.791-6.861C80.926,117.802,86.334,127.854,86.012,138.136z"/>
<path id="path4443" inkscape:connector-curvature="0" fill="none" stroke="#000000" stroke-width="13" stroke-linecap="round" stroke-linejoin="round" d="
	M309.402,137.816c0.596,18.291-16.828,34.855-35.164,32.522c-16.406-1.316-29.939-16.64-29.156-33.093
	c-0.166-16.775,14.435-32.031,31.312-32.053C294.258,104.318,309.766,120.117,309.402,137.816L309.402,137.816z"/>
<path id="path4484_1_" inkscape:connector-curvature="0" fill="none" stroke="#000000" stroke-width="13" stroke-linecap="round" stroke-linejoin="round" d="
	M166.742,73.43"/>
<line fill="none" stroke="#000000" stroke-width="13" stroke-linecap="round" stroke-linejoin="round" x1="264.973" y1="61.491" x2="92.976" y2="62.181"/>
<g>
	<defs>
		<rect id="SVGID_1_" x="-98.599" y="-38.346" width="468.999" height="171"/>
	</defs>
	<clipPath id="SVGID_2_">
		<use xlink:href="#SVGID_1_"  overflow="visible"/>
	</clipPath>
	
		<path id="path3931" inkscape:connector-curvature="0" sodipodi:nodetypes="ccccccccc" clip-path="url(#SVGID_2_)" fill="none" stroke="#000000" stroke-width="13" stroke-linecap="round" stroke-linejoin="round" d="
		M24.394,80.918c7.81-10.791,46.023-13.804,68.674-20.059c6.191-18.174,14.285-35.471,22.08-53.645
		c15.026-6.716,74.406-12.186,118.967-1.558c13.492,17.271,22.988,33.093,30.949,54.513c13.168,1.707,25.832,5.857,34.016,9.696
		c14.994,17.344,17.637,48.596,20.223,76.789L9.069,147.01C11.083,125.326,7.774,101.727,24.394,80.918L24.394,80.918z"/>
</g>
<line fill="none" stroke="#000000" stroke-width="13" stroke-linecap="round" stroke-linejoin="round" x1="86.058" y1="147.201" x2="245.05" y2="148.332"/>
</svg>
