<?xml version="1.0" encoding="utf-8"?>
<!-- Generator: Adobe Illustrator 16.0.0, SVG Export Plug-In . SVG Version: 6.00 Build 0)  -->
<!DOCTYPE svg PUBLIC "-//W3C//DTD SVG 1.1//EN" "http://www.w3.org/Graphics/SVG/1.1/DTD/svg11.dtd">
<svg version="1.1"
	 id="svg2" inkscape:export-xdpi="90" inkscape:export-filename="C:\joanna\Gfx\drawings_vector\nature_plants\fruits\papa_candy.png" inkscape:version="0.48.1 " sodipodi:docname="home_icon_black_white_line_art_coloring_book_colouring.svg" sodipodi:version="0.32" inkscape:output_extension="org.inkscape.output.svg.inkscape" inkscape:export-ydpi="90" xmlns:cc="http://creativecommons.org/ns#" xmlns:dc="http://purl.org/dc/elements/1.1/" xmlns:inkscape="http://www.inkscape.org/namespaces/inkscape" xmlns:rdf="http://www.w3.org/1999/02/22-rdf-syntax-ns#" xmlns:sodipodi="http://sodipodi.sourceforge.net/DTD/sodipodi-0.dtd" xmlns:svg="http://www.w3.org/2000/svg"
	 xmlns="http://www.w3.org/2000/svg" xmlns:xlink="http://www.w3.org/1999/xlink" x="0px" y="0px" width="277.5px" height="274.5px"
	 viewBox="0 0 277.5 274.5" enable-background="new 0 0 277.5 274.5" xml:space="preserve">
<defs>
	
	
		<inkscape:perspective  inkscape:persp3d-origin="279.81235 : 124.43199 : 1" inkscape:vp_x="0 : 186.64798 : 1" inkscape:vp_z="559.62469 : 186.64798 : 1" inkscape:vp_y="0 : 1000 : 0" id="perspective4876" sodipodi:type="inkscape:persp3d">
		</inkscape:perspective>
</defs>
<g id="XMLID_1_">
	<g>
		<polygon fill="none" points="269.23,122.02 231.971,122.02 231.971,121.99 47,121.99 47,122.02 45.12,122.02 7.77,122.02 
			138.5,7.77 213.2,73.06 		"/>
		<rect x="101.3" y="161.93" fill="none" width="74.4" height="105.28"/>
		<polygon fill="none" points="231.971,122.02 231.971,267.21 175.7,267.21 175.7,161.93 101.3,161.93 101.3,267.21 47,267.21 
			47,122.02 231.88,122.02 		"/>
	</g>
	<g>
		<polyline fill="none" stroke="#000000" stroke-width="13" stroke-linecap="round" stroke-linejoin="round" points="213.2,73.06 
			138.5,7.77 7.77,122.02 45.12,122.02 47,122.02 231.88,122.02 231.971,122.02 269.23,122.02 213.2,73.06 		"/>
		<polyline fill="none" stroke="#000000" stroke-width="13" stroke-linecap="round" stroke-linejoin="round" points="47,121.99 
			231.971,121.99 231.971,122.02 231.971,267.21 		"/>
		
			<line fill="none" stroke="#000000" stroke-width="13" stroke-linecap="round" stroke-linejoin="round" x1="101.3" y1="161.93" x2="175.7" y2="161.93"/>
		<polyline fill="none" stroke="#000000" stroke-width="13" stroke-linecap="round" stroke-linejoin="round" points="47,121.99 
			47,122.02 47,267.21 		"/>
		
			<line fill="none" stroke="#000000" stroke-width="13" stroke-linecap="round" stroke-linejoin="round" x1="175.7" y1="161.93" x2="175.7" y2="267.21"/>
		
			<line fill="none" stroke="#000000" stroke-width="13" stroke-linecap="round" stroke-linejoin="round" x1="101.3" y1="161.93" x2="101.3" y2="267.21"/>
		
			<line fill="none" stroke="#000000" stroke-width="13" stroke-linecap="round" stroke-linejoin="round" x1="175.7" y1="267.21" x2="101.3" y2="267.21"/>
		
			<line fill="none" stroke="#000000" stroke-width="13" stroke-linecap="round" stroke-linejoin="round" x1="101.3" y1="267.21" x2="47" y2="267.21"/>
		
			<line fill="none" stroke="#000000" stroke-width="13" stroke-linecap="round" stroke-linejoin="round" x1="175.7" y1="267.21" x2="231.971" y2="267.21"/>
	</g>
</g>
</svg>
