<?xml version="1.0" encoding="utf-8"?>
<!-- Generator: Adobe Illustrator 16.0.0, SVG Export Plug-In . SVG Version: 6.00 Build 0)  -->
<!DOCTYPE svg PUBLIC "-//W3C//DTD SVG 1.1//EN" "http://www.w3.org/Graphics/SVG/1.1/DTD/svg11.dtd">
<svg version="1.1"
	 id="svg3371" xmlns:inkscape="http://www.inkscape.org/namespaces/inkscape" xmlns:sodipodi="http://sodipodi.sourceforge.net/DTD/sodipodi-0.dtd" xmlns:svg="http://www.w3.org/2000/svg" xmlns:rdf="http://www.w3.org/1999/02/22-rdf-syntax-ns#" xmlns:cc="http://creativecommons.org/ns#" xmlns:dc="http://purl.org/dc/elements/1.1/" inkscape:version="0.46+pre4" sodipodi:version="0.32" inkscape:output_extension="org.inkscape.output.svg.inkscape" sodipodi:docname="wedding cake.svg"
	 xmlns="http://www.w3.org/2000/svg" xmlns:xlink="http://www.w3.org/1999/xlink" x="0px" y="0px" width="744.094px"
	 height="1052.361px" viewBox="0 0 744.094 1052.361" enable-background="new 0 0 744.094 1052.361" xml:space="preserve">
<defs>
	
	
		<inkscape:perspective  sodipodi:type="inkscape:persp3d" inkscape:vp_x="0 : 526.18109 : 1" inkscape:vp_y="0 : 1000 : 0" inkscape:vp_z="744.09448 : 526.18109 : 1" id="perspective3379" inkscape:persp3d-origin="372.04724 : 350.78739 : 1">
		</inkscape:perspective>
	
		<inkscape:perspective  sodipodi:type="inkscape:persp3d" inkscape:vp_x="0 : 526.18109 : 1" inkscape:vp_y="0 : 1000 : 0" inkscape:vp_z="744.09448 : 526.18109 : 1" id="perspective3388" inkscape:persp3d-origin="372.04724 : 350.78739 : 1">
		</inkscape:perspective>
	
		<inkscape:perspective  sodipodi:type="inkscape:persp3d" inkscape:vp_x="0 : 526.18109 : 1" inkscape:vp_y="0 : 1000 : 0" inkscape:vp_z="744.09448 : 526.18109 : 1" id="perspective3401" inkscape:persp3d-origin="372.04724 : 350.78739 : 1">
		</inkscape:perspective>
</defs>
<sodipodi:namedview  id="base" pagecolor="#ffffff" bordercolor="#666666" borderopacity="1.0" gridtolerance="10000" guidetolerance="10" objecttolerance="10" inkscape:zoom="0.35" inkscape:cx="-23.571429" inkscape:cy="520" showgrid="false" inkscape:window-y="-4" inkscape:window-x="-4" inkscape:window-height="751" inkscape:window-width="1280" inkscape:current-layer="layer1" inkscape:document-units="px" inkscape:pageshadow="2" inkscape:pageopacity="0.0">
	</sodipodi:namedview>
<g id="layer1" inkscape:label="Layer 1" inkscape:groupmode="layer">
	<path id="path3407" d="M34.354,937.949c-2.229-2.229-2.999-27.749-2.999-99.376c0-95.215-0.063-96.417-5.252-99.656
		c-4.084-2.551-5.029-5.185-4.251-11.849c0.55-4.714,0.102-8.569-0.997-8.569s-1.998-2.688-1.998-5.974
		c0-8.411,17.778-16.521,36.215-16.521h13.774v-68.133c0-65.427-0.199-68.258-4.999-71.255c-6.788-4.24-7.234-28.005-0.625-33.311
		c10.099-8.107,16.335-9.761,36.833-9.761h21.279v-42.954c0-40.365-0.32-43.295-5.315-48.611c-3.63-3.863-4.709-7.085-3.403-10.159
		c1.052-2.476,1.669-8.177,1.371-12.67c-0.999-15.065,2.998-15.575,121.995-15.575h104.812l1.643-15.622
		c5.008-47.613,16.791-92.412,30.734-116.849c3.53-6.186,15.515-20.614,26.632-32.063c14.794-15.235,19.98-22.248,19.342-26.154
		c-1.013-6.193-12.399-23.358-20.082-30.274c-7.149-6.435-6.96-2.272,0.959,21.008c8.116,23.864,8.021,24.994-2.103,24.994
		c-7.476,0-9.082-1.343-15.33-12.822c-9.248-16.993-9.395-32.312-0.453-47.399c12.885-21.74,16.507-24.673,33.897-27.442
		c8.807-1.402,17.523-1.971,19.371-1.262c5.246,2.014,3.939-1.987-1.825-5.588c-11.502-7.183-16.136-34.461-8.15-47.979
		c4.424-7.488,12.843-12.472,21.074-12.472c7.408,0,19.196,6.787,22.495,12.951c6.931,12.95-0.024,45.043-10.481,48.361
		c-8.307,2.637-5.127,4.903,7.753,5.525c29.364,1.419,40.741,14.578,39.455,45.637c-0.684,16.503-1.771,20.185-9.095,30.763
		c-6.874,9.931-9.47,11.884-14.95,11.248c-9.063-1.052-9.529-7.076-1.531-19.747c7.028-11.133,11.203-29.762,6.67-29.762
		c-1.425,0-5.658,5.343-9.406,11.872c-3.748,6.53-8.976,15.476-11.617,19.88l-4.802,8.008l18.253,13.512
		c23.378,17.306,37.348,32.574,46.543,50.87c8.028,15.975,18.493,58.962,23.193,95.272c1.652,12.762,3.731,23.653,4.622,24.204
		c0.89,0.55,19.526,1.27,41.413,1.599c38.146,0.574,40.041,0.845,45.722,6.525c3.974,3.975,5.33,7.33,4.118,10.189
		c-0.994,2.345-1.63,7.488-1.413,11.43c0.496,8.979-3.591,14.078-11.282,14.078h-5.942v43.396v43.397l29.368,1.313
		c16.153,0.723,31.227,2.079,33.496,3.016c5.481,2.261,6.508,7.365,4.797,23.852c-1.32,12.726-1.937,13.806-8.3,14.538l-6.873,0.791
		v69.817v69.818h27.071c26.118,0,27.187,0.214,30.325,6.08c1.845,3.446,2.447,8.048,1.391,10.622
		c-3.547,8.646-4.21,22.494-5.958,124.516c-0.966,56.362-2,102.758-2.298,103.102c-0.299,0.344-156.095,0.625-346.214,0.625
		C117.501,940.948,36.657,940.253,34.354,937.949z M711.2,828.474c0-105.66,0.528-103.587-19.996-78.473
		c-11.698,14.314-29.769,27.518-44.919,32.82c-4.851,1.698-16.574,3.104-26.053,3.125c-23.542,0.051-45.747-10.662-72.336-34.899
		c-17.713-16.146-20.313-17.694-27.19-16.184c-4.183,0.918-14.327,7.087-22.545,13.709c-30.22,24.352-65.811,37.363-102.275,37.393
		c-36.576,0.028-64.137-10.506-96.545-36.903c-18.202-14.826-29.023-15.394-42.813-2.244c-15.14,14.438-29.877,23.675-50.397,31.589
		c-42.709,16.47-92.648,6.659-134.94-26.509c-7.646-5.997-15.238-10.903-16.871-10.903c-2.237,0-2.969,22.177-2.969,89.979v89.979
		h329.925H711.2V828.474z M200.546,758.723c19.883-7.845,40.479-21.8,48.22-32.671c2.771-3.891,5.038-7.745,5.038-8.563
		c0-0.819-42.74-1.489-94.979-1.489c-60.713,0-94.979,0.889-94.979,2.463c0,3.292,26.206,23.99,38.741,30.601
		C137.522,767.482,170.186,770.702,200.546,758.723z M435.319,759.583c10.829-3.522,24.188-9.034,29.688-12.248
		c12.417-7.257,36.241-26.504,36.241-29.278c0-2.825-201.801-2.637-203.548,0.19c-0.764,1.236,2.65,5.795,7.588,10.13
		C345.328,763.533,390.124,774.284,435.319,759.583z M647.524,759.603c13.469-6.371,30.438-21.912,39.425-36.105l4.747-7.498
		h-72.729c-51.39,0-72.729,0.811-72.729,2.76c0,5.83,30.231,32.066,45.455,39.449C612.209,768.157,628.578,768.567,647.524,759.603z
		 M55.003,719.703l0.096-12.448l-13.44-0.002c-13.646-0.002-18.88,3.67-13.253,9.297c1.853,1.853,1.922,4.197,0.217,7.383
		c-3.863,7.218-0.834,9.199,13.282,8.689l13.003-0.471L55.003,719.703z M290.514,723.861c-0.689-3.606-0.257-8.42,0.961-10.696
		c3.067-5.731-3.311-10.955-9.29-7.609c-2.598,1.454-6.674,1.573-10.04,0.293c-3.117-1.185-6.103-1.354-6.636-0.375
		c-0.848,1.556-0.439,23.724,0.453,24.61c0.187,0.185,6.069,0.336,13.072,0.336C291.429,730.419,291.735,730.245,290.514,723.861z
		 M721.444,728.584c5.755,3.221,10.869-1.035,7.811-6.5c-1.725-3.081-1.666-5.881,0.184-8.843c3.681-5.895-1.978-13.067-7.878-9.985
		c-2.261,1.181-7.767,1.592-12.234,0.913c-6.902-1.049-8.123-0.472-8.123,3.84c0,2.791,1.286,5.503,2.857,6.027
		c2.102,0.7,2.133,2.309,0.117,6.074c-3.656,6.831,0.62,11.296,8.097,8.453C715.265,727.427,719.391,727.436,721.444,728.584z
		 M524.96,726.048c0.955-1.544,3.293-1.336,6.334,0.563c6.641,4.147,12.34-0.964,7.533-6.756c-2.544-3.064-2.567-4.617-0.114-7.572
		c5.841-7.038,1.34-10.554-12.872-10.055c-9.877,0.346-13.544,1.486-14.109,4.388c-0.42,2.155,0.427,4.654,1.882,5.554
		c1.85,1.144,1.856,3.105,0.022,6.533c-1.442,2.694-1.941,6-1.109,7.347C514.485,729.217,523.002,729.217,524.96,726.048z
		 M658.712,626.969v-68.79l-8.123,8.408c-23.464,24.286-45.444,36.293-70.769,38.658c-12.642,1.181-18.533,0.274-33.757-5.192
		c-22.229-7.981-34.312-16.029-48.617-32.383l-10.773-12.316l-13.606,12.868c-7.483,7.077-21.667,16.791-31.52,21.586
		c-17.141,8.342-19.1,8.719-45.374,8.719c-27.337,0-27.559-0.049-49.683-10.88c-12.223-5.984-28.348-16.28-35.834-22.88
		c-11.652-10.273-15.122-11.999-24.122-11.999c-8.816,0-12.204,1.597-20.997,9.9c-29.387,27.75-51.133,39.653-77.231,42.275
		c-26.122,2.623-56.914-11.71-83.039-38.654c-16.006-16.509-16.426-14.911-16.426,62.563v67.207l284.936-0.15l284.936-0.151V626.969
		z M209.905,578.599c11.556-4.953,39.906-26.269,51.208-38.5l6.06-6.558h-81.926H103.32l8.124,9.373
		c13.291,15.336,33.817,31.681,45.342,36.105C172.004,584.863,195.73,584.675,209.905,578.599z M601.705,578.861
		c11.429-4.899,35.938-25.785,44.703-38.094l5.146-7.226h-72.653h-72.654v6.487c0,13.247,18.24,30.543,40.76,38.649
		C564.045,584.811,587.639,584.89,601.705,578.861z M434.459,570.774c20.252-10.103,31.796-21.076,31.796-30.225v-7.008h-76.232
		c-60.795,0-76.232,0.656-76.232,3.241c0,5.78,18.337,21.247,34.992,29.514c20.549,10.2,26.741,11.664,50.685,11.979
		C416.496,578.499,420.839,577.569,434.459,570.774z M92.748,540.186c-0.6-14.224-2.148-16.004-13.192-15.16
		c-5.203,0.396-10.444,0.788-11.647,0.869s-1.545,3.358-0.76,7.282c0.784,3.923,0.235,8.324-1.22,9.779
		c-4.298,4.298,0.397,8.71,7.712,7.247c3.678-0.736,8.22-0.391,10.093,0.767C90.034,554.864,93.206,551.069,92.748,540.186z
		 M500.483,538.486c0.104-6.964-1.024-12.54-2.65-13.092c-6.427-2.177-26.578,1.236-26.578,4.502c0,1.843,1.082,4.019,2.404,4.836
		c1.479,0.915,1.541,3.755,0.159,7.389c-1.234,3.247-1.714,6.434-1.065,7.082s7.111,1.232,14.363,1.297l13.184,0.119
		L500.483,538.486z M670.986,548.729c2.166-1.371,5.255-1.151,8.009,0.568c6.106,3.813,7.828,1.351,8.384-11.988
		c0.506-12.133-2.793-17.398-8.637-13.786c-1.951,1.205-6.558,1.59-10.235,0.854c-7.57-1.514-11.636,2.684-7.467,7.707
		c1.517,1.827,2.056,5.152,1.197,7.389c-1.741,4.537,0.259,11.585,3.271,11.526C666.581,550.978,669.046,549.956,670.986,548.729z
		 M307.355,534.19c0.68-14.076-1.727-17.938-8.543-13.714c-3.608,2.237-6.521,2.438-9.811,0.678
		c-5.857-3.135-12.736,3.355-8.28,7.812c1.713,1.713,1.917,4.801,0.554,8.386c-2.895,7.612-1.6,8.396,13.03,7.88l12.539-0.442
		L307.355,534.19z M606.224,468.248c0-35.818-0.653-44.805-3.124-42.952c-1.719,1.288-7.624,5.716-13.122,9.84
		c-10.283,7.713-25.899,13.424-36.703,13.424c-12.173,0-31.954-7.791-44.044-17.348c-10.486-8.289-14.389-9.849-25.996-10.386
		c-12.317-0.57-15.478,0.471-32.189,10.609c-25.47,15.452-39.051,19.624-63.88,19.624c-24.732,0-37.639-3.945-61.517-18.806
		c-17.368-10.809-17.659-10.887-36.118-9.703c-16.069,1.029-20.314,2.365-31.101,9.785c-29.009,19.954-61.487,20.716-92.434,2.165
		c-24.938-14.948-24.667-15.317-24.667,33.638c0,23.141,0.727,42.801,1.615,43.689c0.889,0.888,105.489,1.637,232.447,1.664
		l230.832,0.05V468.248z M423.765,422.99c7.562-3.753,18.246-9.623,23.745-13.044l9.997-6.22l-69.849-0.078l-69.849-0.078
		l11.659,7.394c28.065,17.799,35.108,20.053,60.554,19.38C406.083,429.918,412.723,428.472,423.765,422.99z M227.99,424.014
		c8.043-2.503,19.559-8.127,25.592-12.497l10.97-7.946h-52.863c-29.075,0-52.863,0.576-52.863,1.281
		c0,2.863,26.928,18.163,36.242,20.591C209.392,429.176,211.73,429.074,227.99,424.014z M563.986,425.675
		c9.55-3.249,29.741-16.846,29.741-20.028c0-1.142-19.402-2.034-43.115-1.982l-43.115,0.094l9.998,8.681
		c8.586,7.455,26.078,15.372,35.243,15.952C554.251,428.487,559.313,427.264,563.986,425.675z M130.726,418.173
		c2.191-2.191,3.828-2.117,6.748,0.307c2.865,2.377,4.72,2.481,7.221,0.406c2.885-2.395,3.259-7.259,1.781-23.15
		c-0.234-2.521-25.048-1.837-26.638,0.734c-0.789,1.276-0.147,3.87,1.424,5.765c2.16,2.603,2.06,4.731-0.409,8.715
		c-2.749,4.435-2.673,5.649,0.481,7.656C126.197,421.698,127.249,421.65,130.726,418.173z M628.295,419.144
		c4.161,4.161,10.966-2.387,8.081-7.777c-1.363-2.548-1.237-5.958,0.324-8.749c3.31-5.914-3.756-14.271-8.259-9.768
		c-1.574,1.574-6.455,2.222-11.086,1.47l-8.273-1.343l0.381,12.171c0.43,13.677,2.606,16.423,10.606,13.382
		C623.486,417.231,626.616,417.464,628.295,419.144z M298.958,413.172c0.777-1.187,0.777-6.9,0-12.697
		c-1.414-10.537-1.417-10.54-12.247-10.596c-11.688-0.06-18.205,4.398-13.423,9.182c1.906,1.906,1.993,4.239,0.278,7.444
		c-1.374,2.566-1.88,5.667-1.125,6.889C274.196,416.231,297.078,416.039,298.958,413.172z M502.401,402.321l0.097-12.497
		l-13.342-0.257c-13.664-0.265-19.205,3.702-13.352,9.556c1.921,1.921,1.942,4.158,0.074,7.648
		c-3.492,6.525-0.486,8.205,14.525,8.117l11.901-0.069L502.401,402.321z M245.87,372.791c6.195-6.595,6.909-17.931,2.781-44.203
		c-1.404-8.936-3.637-27.494-4.962-41.241s-3.479-33.43-4.786-43.74c-1.307-10.31-2.426-21.645-2.486-28.854
		c-0.1-11.93-1.237-17.51-12.638-31.657c-20.618-25.587-22.103-39.334-7.629-70.663l9.837-21.29l23.281-0.016
		c22.533-0.015,23.04-0.139,15.782-3.857c-10.646-5.455-13.747-10.57-13.747-22.687c0-21.335,7.081-30.937,26.48-35.908
		c10.897-2.793,13.478-2.663,20.631,1.035c8.996,4.652,17.874,21.582,17.874,34.085c0,8.563-8.058,22.771-14.318,25.245
		c-2.482,0.982,2.242,1.828,10.758,1.927l15.186,0.176l12.23,19.307c10.777,17.013,12.239,20.948,12.309,33.117
		c0.079,13.944-5.873,29.435-17.897,46.58c-4.094,5.838-5.391,12.97-6.767,37.215c-0.937,16.496-3.907,47.925-6.602,69.841
		s-4.898,49.191-4.898,60.611v20.764h-13.747h-13.746l-0.252-69.359l-0.253-69.359l-4.617,23.745
		c-2.7,13.882-5.354,42.69-6.39,69.359l-1.771,45.614h-17.539h-17.538L245.87,372.791z"/>
</g>
<rect x="240.436" y="369.576" width="32.853" height="20.484"/>
<rect x="290.436" y="367.576" width="32.853" height="20.484"/>
</svg>
